<?xml version="1.0" encoding="utf-8" standalone="no"?>
<!DOCTYPE svg PUBLIC "-//W3C//DTD SVG 1.1//EN"
  "http://www.w3.org/Graphics/SVG/1.1/DTD/svg11.dtd">
<!-- Created with matplotlib (https://matplotlib.org/) -->
<svg height="288pt" version="1.1" viewBox="0 0 288 288" width="288pt" xmlns="http://www.w3.org/2000/svg" xmlns:xlink="http://www.w3.org/1999/xlink">
 <defs>
  <style type="text/css">
*{stroke-linecap:butt;stroke-linejoin:round;}
  </style>
 </defs>
 <g id="figure_1">
  <g id="patch_1">
   <path d="M 0 288 
L 288 288 
L 288 0 
L 0 0 
z
" style="fill:#ffffff;"/>
  </g>
  <g id="axes_1">
   <g id="patch_2">
    <path d="M 57.62 244.96 
L 277.2 244.96 
L 277.2 10.8 
L 57.62 10.8 
z
" style="fill:#ffffff;"/>
   </g>
   <g id="PathCollection_1">
    <path clip-path="url(#p890e4731da)" d="M 232.436228 205.712487 
C 233.02924 205.712487 233.598044 205.476881 234.017367 205.057558 
C 234.43669 204.638235 234.672296 204.069431 234.672296 203.476419 
C 234.672296 202.883407 234.43669 202.314603 234.017367 201.89528 
C 233.598044 201.475957 233.02924 201.240351 232.436228 201.240351 
C 231.843216 201.240351 231.274412 201.475957 230.855089 201.89528 
C 230.435766 202.314603 230.20016 202.883407 230.20016 203.476419 
C 230.20016 204.069431 230.435766 204.638235 230.855089 205.057558 
C 231.274412 205.476881 231.843216 205.712487 232.436228 205.712487 
z
" style="fill:#3482f4;stroke:#000000;stroke-width:0.75;"/>
    <path clip-path="url(#p890e4731da)" d="M 243.535541 200.923447 
C 244.128553 200.923447 244.697357 200.68784 245.11668 200.268517 
C 245.536003 199.849195 245.771609 199.280391 245.771609 198.687379 
C 245.771609 198.094366 245.536003 197.525563 245.11668 197.10624 
C 244.697357 196.686917 244.128553 196.451311 243.535541 196.451311 
C 242.942529 196.451311 242.373725 196.686917 241.954402 197.10624 
C 241.535079 197.525563 241.299473 198.094366 241.299473 198.687379 
C 241.299473 199.280391 241.535079 199.849195 241.954402 200.268517 
C 242.373725 200.68784 242.942529 200.923447 243.535541 200.923447 
z
" style="fill:#3482f4;stroke:#000000;stroke-width:0.75;"/>
    <path clip-path="url(#p890e4731da)" d="M 238.509574 203.994027 
C 239.102586 203.994027 239.671389 203.758421 240.090712 203.339098 
C 240.510035 202.919775 240.745642 202.350971 240.745642 201.757959 
C 240.745642 201.164947 240.510035 200.596143 240.090712 200.17682 
C 239.671389 199.757497 239.102586 199.521891 238.509574 199.521891 
C 237.916561 199.521891 237.347758 199.757497 236.928435 200.17682 
C 236.509112 200.596143 236.273506 201.164947 236.273506 201.757959 
C 236.273506 202.350971 236.509112 202.919775 236.928435 203.339098 
C 237.347758 203.758421 237.916561 203.994027 238.509574 203.994027 
z
" style="fill:#3482f4;stroke:#000000;stroke-width:0.75;"/>
    <path clip-path="url(#p890e4731da)" d="M 223.915039 207.351146 
C 224.508051 207.351146 225.076854 207.11554 225.496177 206.696217 
C 225.9155 206.276894 226.151107 205.70809 226.151107 205.115078 
C 226.151107 204.522066 225.9155 203.953262 225.496177 203.533939 
C 225.076854 203.114616 224.508051 202.87901 223.915039 202.87901 
C 223.322026 202.87901 222.753223 203.114616 222.3339 203.533939 
C 221.914577 203.953262 221.678971 204.522066 221.678971 205.115078 
C 221.678971 205.70809 221.914577 206.276894 222.3339 206.696217 
C 222.753223 207.11554 223.322026 207.351146 223.915039 207.351146 
z
" style="fill:#3482f4;stroke:#000000;stroke-width:0.75;"/>
    <path clip-path="url(#p890e4731da)" d="M 245.562945 200.55536 
C 246.155957 200.55536 246.724761 200.319754 247.144084 199.900431 
C 247.563407 199.481108 247.799013 198.912304 247.799013 198.319292 
C 247.799013 197.72628 247.563407 197.157476 247.144084 196.738153 
C 246.724761 196.31883 246.155957 196.083224 245.562945 196.083224 
C 244.969933 196.083224 244.401129 196.31883 243.981806 196.738153 
C 243.562483 197.157476 243.326877 197.72628 243.326877 198.319292 
C 243.326877 198.912304 243.562483 199.481108 243.981806 199.900431 
C 244.401129 200.319754 244.969933 200.55536 245.562945 200.55536 
z
" style="fill:#3482f4;stroke:#000000;stroke-width:0.75;"/>
    <path clip-path="url(#p890e4731da)" d="M 227.465666 206.990159 
C 228.058678 206.990159 228.627482 206.754553 229.046804 206.33523 
C 229.466127 205.915907 229.701734 205.347104 229.701734 204.754091 
C 229.701734 204.161079 229.466127 203.592275 229.046804 203.172953 
C 228.627482 202.75363 228.058678 202.518023 227.465666 202.518023 
C 226.872653 202.518023 226.30385 202.75363 225.884527 203.172953 
C 225.465204 203.592275 225.229598 204.161079 225.229598 204.754091 
C 225.229598 205.347104 225.465204 205.915907 225.884527 206.33523 
C 226.30385 206.754553 226.872653 206.990159 227.465666 206.990159 
z
" style="fill:#3482f4;stroke:#000000;stroke-width:0.75;"/>
    <path clip-path="url(#p890e4731da)" d="M 239.223345 188.588102 
C 239.816357 188.588102 240.385161 188.352496 240.804484 187.933173 
C 241.223807 187.51385 241.459413 186.945046 241.459413 186.352034 
C 241.459413 185.759022 241.223807 185.190218 240.804484 184.770895 
C 240.385161 184.351572 239.816357 184.115966 239.223345 184.115966 
C 238.630333 184.115966 238.061529 184.351572 237.642206 184.770895 
C 237.222883 185.190218 236.987277 185.759022 236.987277 186.352034 
C 236.987277 186.945046 237.222883 187.51385 237.642206 187.933173 
C 238.061529 188.352496 238.630333 188.588102 239.223345 188.588102 
z
" style="fill:#3482f4;stroke:#000000;stroke-width:0.75;"/>
    <path clip-path="url(#p890e4731da)" d="M 198.410267 216.707778 
C 199.00328 216.707778 199.572083 216.472172 199.991406 216.052849 
C 200.410729 215.633526 200.646335 215.064722 200.646335 214.47171 
C 200.646335 213.878698 200.410729 213.309894 199.991406 212.890571 
C 199.572083 212.471248 199.00328 212.235642 198.410267 212.235642 
C 197.817255 212.235642 197.248452 212.471248 196.829129 212.890571 
C 196.409806 213.309894 196.1742 213.878698 196.1742 214.47171 
C 196.1742 215.064722 196.409806 215.633526 196.829129 216.052849 
C 197.248452 216.472172 197.817255 216.707778 198.410267 216.707778 
z
" style="fill:#3482f4;stroke:#000000;stroke-width:0.75;"/>
    <path clip-path="url(#p890e4731da)" d="M 252.145199 196.711116 
C 252.738211 196.711116 253.307015 196.47551 253.726338 196.056187 
C 254.14566 195.636864 254.381267 195.06806 254.381267 194.475048 
C 254.381267 193.882036 254.14566 193.313232 253.726338 192.893909 
C 253.307015 192.474586 252.738211 192.23898 252.145199 192.23898 
C 251.552187 192.23898 250.983383 192.474586 250.56406 192.893909 
C 250.144737 193.313232 249.909131 193.882036 249.909131 194.475048 
C 249.909131 195.06806 250.144737 195.636864 250.56406 196.056187 
C 250.983383 196.47551 251.552187 196.711116 252.145199 196.711116 
z
" style="fill:#3482f4;stroke:#000000;stroke-width:0.75;"/>
    <path clip-path="url(#p890e4731da)" d="M 243.934393 203.103347 
C 244.527405 203.103347 245.096209 202.867741 245.515532 202.448418 
C 245.934855 202.029095 246.170461 201.460291 246.170461 200.867279 
C 246.170461 200.274267 245.934855 199.705463 245.515532 199.28614 
C 245.096209 198.866817 244.527405 198.631211 243.934393 198.631211 
C 243.341381 198.631211 242.772577 198.866817 242.353254 199.28614 
C 241.933931 199.705463 241.698325 200.274267 241.698325 200.867279 
C 241.698325 201.460291 241.933931 202.029095 242.353254 202.448418 
C 242.772577 202.867741 243.341381 203.103347 243.934393 203.103347 
z
" style="fill:#3482f4;stroke:#000000;stroke-width:0.75;"/>
    <path clip-path="url(#p890e4731da)" d="M 243.833134 203.150089 
C 244.426146 203.150089 244.99495 202.914483 245.414273 202.49516 
C 245.833596 202.075837 246.069202 201.507033 246.069202 200.914021 
C 246.069202 200.321009 245.833596 199.752205 245.414273 199.332882 
C 244.99495 198.913559 244.426146 198.677953 243.833134 198.677953 
C 243.240122 198.677953 242.671318 198.913559 242.251995 199.332882 
C 241.832672 199.752205 241.597066 200.321009 241.597066 200.914021 
C 241.597066 201.507033 241.832672 202.075837 242.251995 202.49516 
C 242.671318 202.914483 243.240122 203.150089 243.833134 203.150089 
z
" style="fill:#ea706a;stroke:#000000;stroke-width:0.75;"/>
    <path clip-path="url(#p890e4731da)" d="M 218.270514 209.590864 
C 218.863526 209.590864 219.43233 209.355257 219.851653 208.935934 
C 220.270976 208.516612 220.506582 207.947808 220.506582 207.354796 
C 220.506582 206.761783 220.270976 206.19298 219.851653 205.773657 
C 219.43233 205.354334 218.863526 205.118728 218.270514 205.118728 
C 217.677502 205.118728 217.108698 205.354334 216.689375 205.773657 
C 216.270052 206.19298 216.034446 206.761783 216.034446 207.354796 
C 216.034446 207.947808 216.270052 208.516612 216.689375 208.935934 
C 217.108698 209.355257 217.677502 209.590864 218.270514 209.590864 
z
" style="fill:#ea706a;stroke:#000000;stroke-width:0.75;"/>
    <path clip-path="url(#p890e4731da)" d="M 243.648259 180.072481 
C 244.241271 180.072481 244.810075 179.836875 245.229398 179.417552 
C 245.648721 178.998229 245.884327 178.429425 245.884327 177.836413 
C 245.884327 177.243401 245.648721 176.674597 245.229398 176.255274 
C 244.810075 175.835952 244.241271 175.600345 243.648259 175.600345 
C 243.055247 175.600345 242.486443 175.835952 242.06712 176.255274 
C 241.647798 176.674597 241.412191 177.243401 241.412191 177.836413 
C 241.412191 178.429425 241.647798 178.998229 242.06712 179.417552 
C 242.486443 179.836875 243.055247 180.072481 243.648259 180.072481 
z
" style="fill:#ea706a;stroke:#000000;stroke-width:0.75;"/>
    <path clip-path="url(#p890e4731da)" d="M 232.813592 211.259617 
C 233.406604 211.259617 233.975407 211.02401 234.39473 210.604687 
C 234.814053 210.185365 235.04966 209.616561 235.04966 209.023549 
C 235.04966 208.430536 234.814053 207.861733 234.39473 207.44241 
C 233.975407 207.023087 233.406604 206.787481 232.813592 206.787481 
C 232.220579 206.787481 231.651776 207.023087 231.232453 207.44241 
C 230.81313 207.861733 230.577524 208.430536 230.577524 209.023549 
C 230.577524 209.616561 230.81313 210.185365 231.232453 210.604687 
C 231.651776 211.02401 232.220579 211.259617 232.813592 211.259617 
z
" style="fill:#ea706a;stroke:#000000;stroke-width:0.75;"/>
    <path clip-path="url(#p890e4731da)" d="M 238.673143 204.413125 
C 239.266155 204.413125 239.834959 204.177518 240.254282 203.758195 
C 240.673605 203.338873 240.909211 202.770069 240.909211 202.177057 
C 240.909211 201.584044 240.673605 201.015241 240.254282 200.595918 
C 239.834959 200.176595 239.266155 199.940989 238.673143 199.940989 
C 238.080131 199.940989 237.511327 200.176595 237.092004 200.595918 
C 236.672682 201.015241 236.437075 201.584044 236.437075 202.177057 
C 236.437075 202.770069 236.672682 203.338873 237.092004 203.758195 
C 237.511327 204.177518 238.080131 204.413125 238.673143 204.413125 
z
" style="fill:#ea706a;stroke:#000000;stroke-width:0.75;"/>
    <path clip-path="url(#p890e4731da)" d="M 233.280219 199.238134 
C 233.873232 199.238134 234.442035 199.002528 234.861358 198.583205 
C 235.280681 198.163882 235.516287 197.595078 235.516287 197.002066 
C 235.516287 196.409054 235.280681 195.84025 234.861358 195.420927 
C 234.442035 195.001604 233.873232 194.765998 233.280219 194.765998 
C 232.687207 194.765998 232.118404 195.001604 231.699081 195.420927 
C 231.279758 195.84025 231.044151 196.409054 231.044151 197.002066 
C 231.044151 197.595078 231.279758 198.163882 231.699081 198.583205 
C 232.118404 199.002528 232.687207 199.238134 233.280219 199.238134 
z
" style="fill:#ea706a;stroke:#000000;stroke-width:0.75;"/>
    <path clip-path="url(#p890e4731da)" d="M 248.756839 199.849228 
C 249.349851 199.849228 249.918655 199.613622 250.337978 199.194299 
C 250.757301 198.774976 250.992907 198.206172 250.992907 197.61316 
C 250.992907 197.020148 250.757301 196.451344 250.337978 196.032021 
C 249.918655 195.612698 249.349851 195.377092 248.756839 195.377092 
C 248.163827 195.377092 247.595023 195.612698 247.1757 196.032021 
C 246.756377 196.451344 246.520771 197.020148 246.520771 197.61316 
C 246.520771 198.206172 246.756377 198.774976 247.1757 199.194299 
C 247.595023 199.613622 248.163827 199.849228 248.756839 199.849228 
z
" style="fill:#ea706a;stroke:#000000;stroke-width:0.75;"/>
    <path clip-path="url(#p890e4731da)" d="M 260.49401 194.666361 
C 261.087022 194.666361 261.655826 194.430755 262.075149 194.011432 
C 262.494472 193.592109 262.730078 193.023305 262.730078 192.430293 
C 262.730078 191.837281 262.494472 191.268477 262.075149 190.849154 
C 261.655826 190.429831 261.087022 190.194225 260.49401 190.194225 
C 259.900998 190.194225 259.332194 190.429831 258.912871 190.849154 
C 258.493548 191.268477 258.257942 191.837281 258.257942 192.430293 
C 258.257942 193.023305 258.493548 193.592109 258.912871 194.011432 
C 259.332194 194.430755 259.900998 194.666361 260.49401 194.666361 
z
" style="fill:#ea706a;stroke:#000000;stroke-width:0.75;"/>
    <path clip-path="url(#p890e4731da)" d="M 231.77214 207.498034 
C 232.365152 207.498034 232.933956 207.262428 233.353279 206.843105 
C 233.772602 206.423782 234.008208 205.854978 234.008208 205.261966 
C 234.008208 204.668954 233.772602 204.10015 233.353279 203.680827 
C 232.933956 203.261504 232.365152 203.025898 231.77214 203.025898 
C 231.179128 203.025898 230.610324 203.261504 230.191001 203.680827 
C 229.771678 204.10015 229.536072 204.668954 229.536072 205.261966 
C 229.536072 205.854978 229.771678 206.423782 230.191001 206.843105 
C 230.610324 207.262428 231.179128 207.498034 231.77214 207.498034 
z
" style="fill:#ea706a;stroke:#000000;stroke-width:0.75;"/>
    <path clip-path="url(#p890e4731da)" d="M 221.991075 211.890188 
C 222.584087 211.890188 223.152891 211.654582 223.572214 211.235259 
C 223.991536 210.815936 224.227143 210.247132 224.227143 209.65412 
C 224.227143 209.061108 223.991536 208.492304 223.572214 208.072981 
C 223.152891 207.653658 222.584087 207.418052 221.991075 207.418052 
C 221.398063 207.418052 220.829259 207.653658 220.409936 208.072981 
C 219.990613 208.492304 219.755007 209.061108 219.755007 209.65412 
C 219.755007 210.247132 219.990613 210.815936 220.409936 211.235259 
C 220.829259 211.654582 221.398063 211.890188 221.991075 211.890188 
z
" style="fill:#ea706a;stroke:#000000;stroke-width:0.75;"/>
    <path clip-path="url(#p890e4731da)" d="M 105.910575 217.673372 
L 110.382711 219.90944 
L 110.382711 215.437304 
z
" style="fill:#3482f4;stroke:#000000;stroke-width:0.75;"/>
    <path clip-path="url(#p890e4731da)" d="M 88.857477 228.228687 
L 93.329613 230.464755 
L 93.329613 225.992619 
z
" style="fill:#3482f4;stroke:#000000;stroke-width:0.75;"/>
    <path clip-path="url(#p890e4731da)" d="M 120.612557 228.78387 
L 125.084693 231.019938 
L 125.084693 226.547802 
z
" style="fill:#3482f4;stroke:#000000;stroke-width:0.75;"/>
    <path clip-path="url(#p890e4731da)" d="M 101.275807 218.854175 
L 105.747943 221.090243 
L 105.747943 216.618107 
z
" style="fill:#3482f4;stroke:#000000;stroke-width:0.75;"/>
    <path clip-path="url(#p890e4731da)" d="M 99.686419 231.398676 
L 104.158555 233.634744 
L 104.158555 229.162608 
z
" style="fill:#3482f4;stroke:#000000;stroke-width:0.75;"/>
    <path clip-path="url(#p890e4731da)" d="M 88.128242 225.182803 
L 92.600378 227.418871 
L 92.600378 222.946735 
z
" style="fill:#3482f4;stroke:#000000;stroke-width:0.75;"/>
    <path clip-path="url(#p890e4731da)" d="M 107.539612 214.459738 
L 112.011748 216.695806 
L 112.011748 212.22367 
z
" style="fill:#3482f4;stroke:#000000;stroke-width:0.75;"/>
    <path clip-path="url(#p890e4731da)" d="M 84.456175 224.984392 
L 88.928311 227.22046 
L 88.928311 222.748324 
z
" style="fill:#3482f4;stroke:#000000;stroke-width:0.75;"/>
    <path clip-path="url(#p890e4731da)" d="M 101.440248 208.142389 
L 105.912384 210.378457 
L 105.912384 205.906321 
z
" style="fill:#3482f4;stroke:#000000;stroke-width:0.75;"/>
    <path clip-path="url(#p890e4731da)" d="M 99.993712 214.961771 
L 104.465848 217.197839 
L 104.465848 212.725703 
z
" style="fill:#3482f4;stroke:#000000;stroke-width:0.75;"/>
    <path clip-path="url(#p890e4731da)" d="M 110.508201 227.746809 
L 106.036065 225.510741 
L 106.036065 229.982877 
z
" style="fill:#3482f4;stroke:#000000;stroke-width:0.75;"/>
    <path clip-path="url(#p890e4731da)" d="M 96.849018 228.047454 
L 92.376882 225.811386 
L 92.376882 230.283522 
z
" style="fill:#3482f4;stroke:#000000;stroke-width:0.75;"/>
    <path clip-path="url(#p890e4731da)" d="M 129.015144 233.853158 
L 124.543008 231.61709 
L 124.543008 236.089226 
z
" style="fill:#3482f4;stroke:#000000;stroke-width:0.75;"/>
    <path clip-path="url(#p890e4731da)" d="M 88.626014 232.435346 
L 84.153878 230.199278 
L 84.153878 234.671414 
z
" style="fill:#3482f4;stroke:#000000;stroke-width:0.75;"/>
    <path clip-path="url(#p890e4731da)" d="M 94.252428 229.839384 
L 89.780292 227.603316 
L 89.780292 232.075452 
z
" style="fill:#3482f4;stroke:#000000;stroke-width:0.75;"/>
    <path clip-path="url(#p890e4731da)" d="M 102.617261 226.126729 
L 98.145125 223.890661 
L 98.145125 228.362797 
z
" style="fill:#3482f4;stroke:#000000;stroke-width:0.75;"/>
    <path clip-path="url(#p890e4731da)" d="M 105.317073 227.866282 
L 100.844937 225.630214 
L 100.844937 230.10235 
z
" style="fill:#3482f4;stroke:#000000;stroke-width:0.75;"/>
    <path clip-path="url(#p890e4731da)" d="M 96.702487 222.991869 
L 92.230351 220.755801 
L 92.230351 225.227937 
z
" style="fill:#3482f4;stroke:#000000;stroke-width:0.75;"/>
    <path clip-path="url(#p890e4731da)" d="M 77.832447 223.195798 
L 73.360311 220.95973 
L 73.360311 225.431866 
z
" style="fill:#3482f4;stroke:#000000;stroke-width:0.75;"/>
    <path clip-path="url(#p890e4731da)" d="M 154.7947 196.632711 
L 152.558632 201.104847 
L 157.030768 201.104847 
z
" style="fill:#3482f4;stroke:#000000;stroke-width:0.75;"/>
    <path clip-path="url(#p890e4731da)" d="M 91.741713 227.019987 
L 89.505645 231.492123 
L 93.977781 231.492123 
z
" style="fill:#3482f4;stroke:#000000;stroke-width:0.75;"/>
    <path clip-path="url(#p890e4731da)" d="M 120.65881 215.121968 
L 118.422742 219.594104 
L 122.894878 219.594104 
z
" style="fill:#3482f4;stroke:#000000;stroke-width:0.75;"/>
    <path clip-path="url(#p890e4731da)" d="M 148.58378 198.672767 
L 146.347712 203.144903 
L 150.819848 203.144903 
z
" style="fill:#3482f4;stroke:#000000;stroke-width:0.75;"/>
    <path clip-path="url(#p890e4731da)" d="M 115.8719 210.901158 
L 113.635832 215.373293 
L 118.107968 215.373293 
z
" style="fill:#3482f4;stroke:#000000;stroke-width:0.75;"/>
    <path clip-path="url(#p890e4731da)" d="M 102.306773 229.181164 
L 100.070705 233.6533 
L 104.542841 233.6533 
z
" style="fill:#3482f4;stroke:#000000;stroke-width:0.75;"/>
    <path clip-path="url(#p890e4731da)" d="M 149.090985 210.219533 
L 146.854917 214.691669 
L 151.327053 214.691669 
z
" style="fill:#3482f4;stroke:#000000;stroke-width:0.75;"/>
    <path clip-path="url(#p890e4731da)" d="M 130.777207 228.381719 
L 128.541139 232.853855 
L 133.013275 232.853855 
z
" style="fill:#3482f4;stroke:#000000;stroke-width:0.75;"/>
    <path clip-path="url(#p890e4731da)" d="M 185.946607 223.859535 
L 187.843974 220.697257 
L 185.946607 217.534979 
L 184.049241 220.697257 
z
" style="fill:#3482f4;stroke:#000000;stroke-width:0.75;"/>
    <path clip-path="url(#p890e4731da)" d="M 181.714756 210.88549 
L 183.612123 207.723213 
L 181.714756 204.560935 
L 179.817389 207.723213 
z
" style="fill:#3482f4;stroke:#000000;stroke-width:0.75;"/>
    <path clip-path="url(#p890e4731da)" d="M 122.038352 185.34464 
L 123.935718 182.182363 
L 122.038352 179.020085 
L 120.140985 182.182363 
z
" style="fill:#3482f4;stroke:#000000;stroke-width:0.75;"/>
    <path clip-path="url(#p890e4731da)" d="M 229.040877 204.446243 
L 230.938243 201.283965 
L 229.040877 198.121688 
L 227.14351 201.283965 
z
" style="fill:#3482f4;stroke:#000000;stroke-width:0.75;"/>
    <path clip-path="url(#p890e4731da)" d="M 225.421887 188.212773 
L 227.319254 185.050495 
L 225.421887 181.888218 
L 223.52452 185.050495 
z
" style="fill:#3482f4;stroke:#000000;stroke-width:0.75;"/>
    <path clip-path="url(#p890e4731da)" d="M 222.899738 194.569706 
L 224.797105 191.407428 
L 222.899738 188.245151 
L 221.002371 191.407428 
z
" style="fill:#3482f4;stroke:#000000;stroke-width:0.75;"/>
    <path clip-path="url(#p890e4731da)" d="M 237.655377 204.286064 
L 239.552744 201.123786 
L 237.655377 197.961509 
L 235.758011 201.123786 
z
" style="fill:#3482f4;stroke:#000000;stroke-width:0.75;"/>
    <path clip-path="url(#p890e4731da)" d="M 219.430127 201.570035 
L 221.327494 198.407757 
L 219.430127 195.245479 
L 217.53276 198.407757 
z
" style="fill:#3482f4;stroke:#000000;stroke-width:0.75;"/>
    <path clip-path="url(#p890e4731da)" d="M 253.903804 196.407565 
L 258.37594 196.407565 
L 258.37594 191.935429 
L 253.903804 191.935429 
z
" style="fill:#3482f4;stroke:#000000;stroke-width:0.75;"/>
    <path clip-path="url(#p890e4731da)" d="M 206.595856 189.571467 
L 211.067992 189.571467 
L 211.067992 185.099331 
L 206.595856 185.099331 
z
" style="fill:#3482f4;stroke:#000000;stroke-width:0.75;"/>
    <path clip-path="url(#p890e4731da)" d="M 208.36017 210.117015 
L 212.832306 210.117015 
L 212.832306 205.64488 
L 208.36017 205.64488 
z
" style="fill:#3482f4;stroke:#000000;stroke-width:0.75;"/>
    <path clip-path="url(#p890e4731da)" d="M 264.362407 188.095628 
L 268.834543 188.095628 
L 268.834543 183.623492 
L 264.362407 183.623492 
z
" style="fill:#3482f4;stroke:#000000;stroke-width:0.75;"/>
    <path clip-path="url(#p890e4731da)" d="M 248.211968 199.803578 
L 252.684104 199.803578 
L 252.684104 195.331442 
L 248.211968 195.331442 
z
" style="fill:#3482f4;stroke:#000000;stroke-width:0.75;"/>
    <path clip-path="url(#p890e4731da)" d="M 253.366223 194.950687 
L 257.838359 194.950687 
L 257.838359 190.478551 
L 253.366223 190.478551 
z
" style="fill:#3482f4;stroke:#000000;stroke-width:0.75;"/>
    <path clip-path="url(#p890e4731da)" d="M 243.50093 196.655007 
L 247.973066 196.655007 
L 247.973066 192.182871 
L 243.50093 192.182871 
z
" style="fill:#3482f4;stroke:#000000;stroke-width:0.75;"/>
    <path clip-path="url(#p890e4731da)" d="M 250.716369 197.860852 
L 255.188505 197.860852 
L 255.188505 193.388716 
L 250.716369 193.388716 
z
" style="fill:#3482f4;stroke:#000000;stroke-width:0.75;"/>
    <path clip-path="url(#p890e4731da)" d="M 255.356036 174.968471 
L 253.229409 176.513556 
L 254.041709 179.013556 
L 256.670364 179.013556 
L 257.482663 176.513556 
z
" style="fill:#3482f4;stroke:#000000;stroke-width:0.75;"/>
    <path clip-path="url(#p890e4731da)" d="M 257.400726 183.482231 
L 255.274099 185.027316 
L 256.086398 187.527316 
L 258.715053 187.527316 
L 259.527353 185.027316 
z
" style="fill:#3482f4;stroke:#000000;stroke-width:0.75;"/>
    <path clip-path="url(#p890e4731da)" d="M 249.645968 182.406 
L 247.519341 183.951085 
L 248.33164 186.451085 
L 250.960296 186.451085 
L 251.772595 183.951085 
z
" style="fill:#3482f4;stroke:#000000;stroke-width:0.75;"/>
    <path clip-path="url(#p890e4731da)" d="M 258.769059 188.700179 
L 256.642432 190.245264 
L 257.454731 192.745264 
L 260.083387 192.745264 
L 260.895686 190.245264 
z
" style="fill:#3482f4;stroke:#000000;stroke-width:0.75;"/>
    <path clip-path="url(#p890e4731da)" d="M 249.064121 163.658809 
L 246.937494 165.203894 
L 247.749793 167.703894 
L 250.378449 167.703894 
L 251.190748 165.203894 
z
" style="fill:#3482f4;stroke:#000000;stroke-width:0.75;"/>
    <path clip-path="url(#p890e4731da)" d="M 244.720271 187.311552 
L 242.593644 188.856637 
L 243.405943 191.356637 
L 246.034598 191.356637 
L 246.846898 188.856637 
z
" style="fill:#3482f4;stroke:#000000;stroke-width:0.75;"/>
    <path clip-path="url(#p890e4731da)" d="M 245.451386 180.575442 
L 243.324759 182.120527 
L 244.137058 184.620527 
L 246.765714 184.620527 
L 247.578013 182.120527 
z
" style="fill:#3482f4;stroke:#000000;stroke-width:0.75;"/>
    <path clip-path="url(#p890e4731da)" d="M 236.2974 182.871937 
L 234.170773 184.417022 
L 234.983072 186.917022 
L 237.611728 186.917022 
L 238.424027 184.417022 
z
" style="fill:#3482f4;stroke:#000000;stroke-width:0.75;"/>
    <path clip-path="url(#p890e4731da)" d="M 72.207498 108.529877 
L 71.70547 110.074962 
L 70.080871 110.074962 
L 71.395199 111.029877 
L 70.89317 112.574962 
L 72.207498 111.620047 
L 73.521826 112.574962 
L 73.019797 111.029877 
L 74.334125 110.074962 
L 72.709527 110.074962 
z
" style="fill:#3482f4;stroke:#000000;stroke-width:0.75;"/>
    <path clip-path="url(#p890e4731da)" d="M 92.231381 19.670774 
L 91.729352 21.215859 
L 90.104754 21.215859 
L 91.419081 22.170774 
L 90.917053 23.715859 
L 92.231381 22.760944 
L 93.545708 23.715859 
L 93.04368 22.170774 
L 94.358008 21.215859 
L 92.733409 21.215859 
z
" style="fill:#3482f4;stroke:#000000;stroke-width:0.75;"/>
    <path clip-path="url(#p890e4731da)" d="M 79.391941 37.466817 
L 78.889912 39.011902 
L 77.265314 39.011902 
L 78.579641 39.966817 
L 78.077613 41.511902 
L 79.391941 40.556987 
L 80.706268 41.511902 
L 80.20424 39.966817 
L 81.518568 39.011902 
L 79.893969 39.011902 
z
" style="fill:#3482f4;stroke:#000000;stroke-width:0.75;"/>
    <path clip-path="url(#p890e4731da)" d="M 80.470401 196.196319 
L 79.968372 197.741404 
L 78.343774 197.741404 
L 79.658101 198.696319 
L 79.156073 200.241404 
L 80.470401 199.286489 
L 81.784728 200.241404 
L 81.2827 198.696319 
L 82.597028 197.741404 
L 80.972429 197.741404 
z
" style="fill:#3482f4;stroke:#000000;stroke-width:0.75;"/>
    <path clip-path="url(#p890e4731da)" d="M 120.663481 197.075467 
L 120.161453 198.620552 
L 118.536854 198.620552 
L 119.851182 199.575467 
L 119.349154 201.120552 
L 120.663481 200.165637 
L 121.977809 201.120552 
L 121.475781 199.575467 
L 122.790108 198.620552 
L 121.16551 198.620552 
z
" style="fill:#3482f4;stroke:#000000;stroke-width:0.75;"/>
    <path clip-path="url(#p890e4731da)" d="M 68.221525 131.361833 
L 67.719497 132.906918 
L 66.094898 132.906918 
L 67.409226 133.861833 
L 66.907197 135.406918 
L 68.221525 134.452003 
L 69.535853 135.406918 
L 69.033824 133.861833 
L 70.348152 132.906918 
L 68.723554 132.906918 
z
" style="fill:#3482f4;stroke:#000000;stroke-width:0.75;"/>
    <path clip-path="url(#p890e4731da)" d="M 100.862297 51.602873 
L 100.360268 53.147958 
L 98.73567 53.147958 
L 100.049998 54.102873 
L 99.547969 55.647958 
L 100.862297 54.693043 
L 102.176625 55.647958 
L 101.674596 54.102873 
L 102.988924 53.147958 
L 101.364326 53.147958 
z
" style="fill:#3482f4;stroke:#000000;stroke-width:0.75;"/>
    <path clip-path="url(#p890e4731da)" d="M 179.532646 83.470498 
L 179.030617 85.015583 
L 177.406019 85.015583 
L 178.720347 85.970498 
L 178.218318 87.515583 
L 179.532646 86.560668 
L 180.846974 87.515583 
L 180.344945 85.970498 
L 181.659273 85.015583 
L 180.034674 85.015583 
z
" style="fill:#3482f4;stroke:#000000;stroke-width:0.75;"/>
   </g>
   <g id="PathCollection_2"/>
   <g id="PathCollection_3"/>
   <g id="PathCollection_4"/>
   <g id="PathCollection_5"/>
   <g id="PathCollection_6"/>
   <g id="PathCollection_7"/>
   <g id="PathCollection_8"/>
   <g id="PathCollection_9"/>
   <g id="PathCollection_10"/>
   <g id="PathCollection_11"/>
   <g id="PathCollection_12"/>
   <g id="PathCollection_13"/>
   <g id="matplotlib.axis_1">
    <g id="xtick_1">
     <g id="line2d_1">
      <defs>
       <path d="M 0 0 
L 0 3.5 
" id="mec3fd85d3f" style="stroke:#000000;stroke-width:0.8;"/>
      </defs>
      <g>
       <use style="stroke:#000000;stroke-width:0.8;" x="114.586242" xlink:href="#mec3fd85d3f" y="244.96"/>
      </g>
     </g>
     <g id="text_1">
      <!-- −0.2 -->
      <defs>
       <path d="M 10.59375 35.5 
L 73.1875 35.5 
L 73.1875 27.203125 
L 10.59375 27.203125 
z
" id="DejaVuSans-8722"/>
       <path d="M 31.78125 66.40625 
Q 24.171875 66.40625 20.328125 58.90625 
Q 16.5 51.421875 16.5 36.375 
Q 16.5 21.390625 20.328125 13.890625 
Q 24.171875 6.390625 31.78125 6.390625 
Q 39.453125 6.390625 43.28125 13.890625 
Q 47.125 21.390625 47.125 36.375 
Q 47.125 51.421875 43.28125 58.90625 
Q 39.453125 66.40625 31.78125 66.40625 
z
M 31.78125 74.21875 
Q 44.046875 74.21875 50.515625 64.515625 
Q 56.984375 54.828125 56.984375 36.375 
Q 56.984375 17.96875 50.515625 8.265625 
Q 44.046875 -1.421875 31.78125 -1.421875 
Q 19.53125 -1.421875 13.0625 8.265625 
Q 6.59375 17.96875 6.59375 36.375 
Q 6.59375 54.828125 13.0625 64.515625 
Q 19.53125 74.21875 31.78125 74.21875 
z
" id="DejaVuSans-48"/>
       <path d="M 10.6875 12.40625 
L 21 12.40625 
L 21 0 
L 10.6875 0 
z
" id="DejaVuSans-46"/>
       <path d="M 19.1875 8.296875 
L 53.609375 8.296875 
L 53.609375 0 
L 7.328125 0 
L 7.328125 8.296875 
Q 12.9375 14.109375 22.625 23.890625 
Q 32.328125 33.6875 34.8125 36.53125 
Q 39.546875 41.84375 41.421875 45.53125 
Q 43.3125 49.21875 43.3125 52.78125 
Q 43.3125 58.59375 39.234375 62.25 
Q 35.15625 65.921875 28.609375 65.921875 
Q 23.96875 65.921875 18.8125 64.3125 
Q 13.671875 62.703125 7.8125 59.421875 
L 7.8125 69.390625 
Q 13.765625 71.78125 18.9375 73 
Q 24.125 74.21875 28.421875 74.21875 
Q 39.75 74.21875 46.484375 68.546875 
Q 53.21875 62.890625 53.21875 53.421875 
Q 53.21875 48.921875 51.53125 44.890625 
Q 49.859375 40.875 45.40625 35.40625 
Q 44.1875 33.984375 37.640625 27.21875 
Q 31.109375 20.453125 19.1875 8.296875 
z
" id="DejaVuSans-50"/>
      </defs>
      <g transform="translate(102.444835 259.558437)scale(0.1 -0.1)">
       <use xlink:href="#DejaVuSans-8722"/>
       <use x="83.789062" xlink:href="#DejaVuSans-48"/>
       <use x="147.412109" xlink:href="#DejaVuSans-46"/>
       <use x="179.199219" xlink:href="#DejaVuSans-50"/>
      </g>
     </g>
    </g>
    <g id="xtick_2">
     <g id="line2d_2">
      <g>
       <use style="stroke:#000000;stroke-width:0.8;" x="177.160685" xlink:href="#mec3fd85d3f" y="244.96"/>
      </g>
     </g>
     <g id="text_2">
      <!-- 0.0 -->
      <g transform="translate(169.209122 259.558437)scale(0.1 -0.1)">
       <use xlink:href="#DejaVuSans-48"/>
       <use x="63.623047" xlink:href="#DejaVuSans-46"/>
       <use x="95.410156" xlink:href="#DejaVuSans-48"/>
      </g>
     </g>
    </g>
    <g id="xtick_3">
     <g id="line2d_3">
      <g>
       <use style="stroke:#000000;stroke-width:0.8;" x="239.735128" xlink:href="#mec3fd85d3f" y="244.96"/>
      </g>
     </g>
     <g id="text_3">
      <!-- 0.2 -->
      <g transform="translate(231.783565 259.558437)scale(0.1 -0.1)">
       <use xlink:href="#DejaVuSans-48"/>
       <use x="63.623047" xlink:href="#DejaVuSans-46"/>
       <use x="95.410156" xlink:href="#DejaVuSans-50"/>
      </g>
     </g>
    </g>
    <g id="text_4">
     <!-- Axis 1 (26.83%) -->
     <defs>
      <path d="M 34.1875 63.1875 
L 20.796875 26.90625 
L 47.609375 26.90625 
z
M 28.609375 72.90625 
L 39.796875 72.90625 
L 67.578125 0 
L 57.328125 0 
L 50.6875 18.703125 
L 17.828125 18.703125 
L 11.1875 0 
L 0.78125 0 
z
" id="DejaVuSans-65"/>
      <path d="M 54.890625 54.6875 
L 35.109375 28.078125 
L 55.90625 0 
L 45.3125 0 
L 29.390625 21.484375 
L 13.484375 0 
L 2.875 0 
L 24.125 28.609375 
L 4.6875 54.6875 
L 15.28125 54.6875 
L 29.78125 35.203125 
L 44.28125 54.6875 
z
" id="DejaVuSans-120"/>
      <path d="M 9.421875 54.6875 
L 18.40625 54.6875 
L 18.40625 0 
L 9.421875 0 
z
M 9.421875 75.984375 
L 18.40625 75.984375 
L 18.40625 64.59375 
L 9.421875 64.59375 
z
" id="DejaVuSans-105"/>
      <path d="M 44.28125 53.078125 
L 44.28125 44.578125 
Q 40.484375 46.53125 36.375 47.5 
Q 32.28125 48.484375 27.875 48.484375 
Q 21.1875 48.484375 17.84375 46.4375 
Q 14.5 44.390625 14.5 40.28125 
Q 14.5 37.15625 16.890625 35.375 
Q 19.28125 33.59375 26.515625 31.984375 
L 29.59375 31.296875 
Q 39.15625 29.25 43.1875 25.515625 
Q 47.21875 21.78125 47.21875 15.09375 
Q 47.21875 7.46875 41.1875 3.015625 
Q 35.15625 -1.421875 24.609375 -1.421875 
Q 20.21875 -1.421875 15.453125 -0.5625 
Q 10.6875 0.296875 5.421875 2 
L 5.421875 11.28125 
Q 10.40625 8.6875 15.234375 7.390625 
Q 20.0625 6.109375 24.8125 6.109375 
Q 31.15625 6.109375 34.5625 8.28125 
Q 37.984375 10.453125 37.984375 14.40625 
Q 37.984375 18.0625 35.515625 20.015625 
Q 33.0625 21.96875 24.703125 23.78125 
L 21.578125 24.515625 
Q 13.234375 26.265625 9.515625 29.90625 
Q 5.8125 33.546875 5.8125 39.890625 
Q 5.8125 47.609375 11.28125 51.796875 
Q 16.75 56 26.8125 56 
Q 31.78125 56 36.171875 55.265625 
Q 40.578125 54.546875 44.28125 53.078125 
z
" id="DejaVuSans-115"/>
      <path id="DejaVuSans-32"/>
      <path d="M 12.40625 8.296875 
L 28.515625 8.296875 
L 28.515625 63.921875 
L 10.984375 60.40625 
L 10.984375 69.390625 
L 28.421875 72.90625 
L 38.28125 72.90625 
L 38.28125 8.296875 
L 54.390625 8.296875 
L 54.390625 0 
L 12.40625 0 
z
" id="DejaVuSans-49"/>
      <path d="M 31 75.875 
Q 24.46875 64.65625 21.28125 53.65625 
Q 18.109375 42.671875 18.109375 31.390625 
Q 18.109375 20.125 21.3125 9.0625 
Q 24.515625 -2 31 -13.1875 
L 23.1875 -13.1875 
Q 15.875 -1.703125 12.234375 9.375 
Q 8.59375 20.453125 8.59375 31.390625 
Q 8.59375 42.28125 12.203125 53.3125 
Q 15.828125 64.359375 23.1875 75.875 
z
" id="DejaVuSans-40"/>
      <path d="M 33.015625 40.375 
Q 26.375 40.375 22.484375 35.828125 
Q 18.609375 31.296875 18.609375 23.390625 
Q 18.609375 15.53125 22.484375 10.953125 
Q 26.375 6.390625 33.015625 6.390625 
Q 39.65625 6.390625 43.53125 10.953125 
Q 47.40625 15.53125 47.40625 23.390625 
Q 47.40625 31.296875 43.53125 35.828125 
Q 39.65625 40.375 33.015625 40.375 
z
M 52.59375 71.296875 
L 52.59375 62.3125 
Q 48.875 64.0625 45.09375 64.984375 
Q 41.3125 65.921875 37.59375 65.921875 
Q 27.828125 65.921875 22.671875 59.328125 
Q 17.53125 52.734375 16.796875 39.40625 
Q 19.671875 43.65625 24.015625 45.921875 
Q 28.375 48.1875 33.59375 48.1875 
Q 44.578125 48.1875 50.953125 41.515625 
Q 57.328125 34.859375 57.328125 23.390625 
Q 57.328125 12.15625 50.6875 5.359375 
Q 44.046875 -1.421875 33.015625 -1.421875 
Q 20.359375 -1.421875 13.671875 8.265625 
Q 6.984375 17.96875 6.984375 36.375 
Q 6.984375 53.65625 15.1875 63.9375 
Q 23.390625 74.21875 37.203125 74.21875 
Q 40.921875 74.21875 44.703125 73.484375 
Q 48.484375 72.75 52.59375 71.296875 
z
" id="DejaVuSans-54"/>
      <path d="M 31.78125 34.625 
Q 24.75 34.625 20.71875 30.859375 
Q 16.703125 27.09375 16.703125 20.515625 
Q 16.703125 13.921875 20.71875 10.15625 
Q 24.75 6.390625 31.78125 6.390625 
Q 38.8125 6.390625 42.859375 10.171875 
Q 46.921875 13.96875 46.921875 20.515625 
Q 46.921875 27.09375 42.890625 30.859375 
Q 38.875 34.625 31.78125 34.625 
z
M 21.921875 38.8125 
Q 15.578125 40.375 12.03125 44.71875 
Q 8.5 49.078125 8.5 55.328125 
Q 8.5 64.0625 14.71875 69.140625 
Q 20.953125 74.21875 31.78125 74.21875 
Q 42.671875 74.21875 48.875 69.140625 
Q 55.078125 64.0625 55.078125 55.328125 
Q 55.078125 49.078125 51.53125 44.71875 
Q 48 40.375 41.703125 38.8125 
Q 48.828125 37.15625 52.796875 32.3125 
Q 56.78125 27.484375 56.78125 20.515625 
Q 56.78125 9.90625 50.3125 4.234375 
Q 43.84375 -1.421875 31.78125 -1.421875 
Q 19.734375 -1.421875 13.25 4.234375 
Q 6.78125 9.90625 6.78125 20.515625 
Q 6.78125 27.484375 10.78125 32.3125 
Q 14.796875 37.15625 21.921875 38.8125 
z
M 18.3125 54.390625 
Q 18.3125 48.734375 21.84375 45.5625 
Q 25.390625 42.390625 31.78125 42.390625 
Q 38.140625 42.390625 41.71875 45.5625 
Q 45.3125 48.734375 45.3125 54.390625 
Q 45.3125 60.0625 41.71875 63.234375 
Q 38.140625 66.40625 31.78125 66.40625 
Q 25.390625 66.40625 21.84375 63.234375 
Q 18.3125 60.0625 18.3125 54.390625 
z
" id="DejaVuSans-56"/>
      <path d="M 40.578125 39.3125 
Q 47.65625 37.796875 51.625 33 
Q 55.609375 28.21875 55.609375 21.1875 
Q 55.609375 10.40625 48.1875 4.484375 
Q 40.765625 -1.421875 27.09375 -1.421875 
Q 22.515625 -1.421875 17.65625 -0.515625 
Q 12.796875 0.390625 7.625 2.203125 
L 7.625 11.71875 
Q 11.71875 9.328125 16.59375 8.109375 
Q 21.484375 6.890625 26.8125 6.890625 
Q 36.078125 6.890625 40.9375 10.546875 
Q 45.796875 14.203125 45.796875 21.1875 
Q 45.796875 27.640625 41.28125 31.265625 
Q 36.765625 34.90625 28.71875 34.90625 
L 20.21875 34.90625 
L 20.21875 43.015625 
L 29.109375 43.015625 
Q 36.375 43.015625 40.234375 45.921875 
Q 44.09375 48.828125 44.09375 54.296875 
Q 44.09375 59.90625 40.109375 62.90625 
Q 36.140625 65.921875 28.71875 65.921875 
Q 24.65625 65.921875 20.015625 65.03125 
Q 15.375 64.15625 9.8125 62.3125 
L 9.8125 71.09375 
Q 15.4375 72.65625 20.34375 73.4375 
Q 25.25 74.21875 29.59375 74.21875 
Q 40.828125 74.21875 47.359375 69.109375 
Q 53.90625 64.015625 53.90625 55.328125 
Q 53.90625 49.265625 50.4375 45.09375 
Q 46.96875 40.921875 40.578125 39.3125 
z
" id="DejaVuSans-51"/>
      <path d="M 72.703125 32.078125 
Q 68.453125 32.078125 66.03125 28.46875 
Q 63.625 24.859375 63.625 18.40625 
Q 63.625 12.0625 66.03125 8.421875 
Q 68.453125 4.78125 72.703125 4.78125 
Q 76.859375 4.78125 79.265625 8.421875 
Q 81.6875 12.0625 81.6875 18.40625 
Q 81.6875 24.8125 79.265625 28.4375 
Q 76.859375 32.078125 72.703125 32.078125 
z
M 72.703125 38.28125 
Q 80.421875 38.28125 84.953125 32.90625 
Q 89.5 27.546875 89.5 18.40625 
Q 89.5 9.28125 84.9375 3.921875 
Q 80.375 -1.421875 72.703125 -1.421875 
Q 64.890625 -1.421875 60.34375 3.921875 
Q 55.8125 9.28125 55.8125 18.40625 
Q 55.8125 27.59375 60.375 32.9375 
Q 64.9375 38.28125 72.703125 38.28125 
z
M 22.3125 68.015625 
Q 18.109375 68.015625 15.6875 64.375 
Q 13.28125 60.75 13.28125 54.390625 
Q 13.28125 47.953125 15.671875 44.328125 
Q 18.0625 40.71875 22.3125 40.71875 
Q 26.5625 40.71875 28.96875 44.328125 
Q 31.390625 47.953125 31.390625 54.390625 
Q 31.390625 60.6875 28.953125 64.34375 
Q 26.515625 68.015625 22.3125 68.015625 
z
M 66.40625 74.21875 
L 74.21875 74.21875 
L 28.609375 -1.421875 
L 20.796875 -1.421875 
z
M 22.3125 74.21875 
Q 30.03125 74.21875 34.609375 68.875 
Q 39.203125 63.53125 39.203125 54.390625 
Q 39.203125 45.171875 34.640625 39.84375 
Q 30.078125 34.515625 22.3125 34.515625 
Q 14.546875 34.515625 10.03125 39.859375 
Q 5.515625 45.21875 5.515625 54.390625 
Q 5.515625 63.484375 10.046875 68.84375 
Q 14.59375 74.21875 22.3125 74.21875 
z
" id="DejaVuSans-37"/>
      <path d="M 8.015625 75.875 
L 15.828125 75.875 
Q 23.140625 64.359375 26.78125 53.3125 
Q 30.421875 42.28125 30.421875 31.390625 
Q 30.421875 20.453125 26.78125 9.375 
Q 23.140625 -1.703125 15.828125 -13.1875 
L 8.015625 -13.1875 
Q 14.5 -2 17.703125 9.0625 
Q 20.90625 20.125 20.90625 31.390625 
Q 20.90625 42.671875 17.703125 53.65625 
Q 14.5 64.65625 8.015625 75.875 
z
" id="DejaVuSans-41"/>
     </defs>
     <g transform="translate(119.770938 274.75625)scale(0.12 -0.12)">
      <use xlink:href="#DejaVuSans-65"/>
      <use x="68.408203" xlink:href="#DejaVuSans-120"/>
      <use x="127.587891" xlink:href="#DejaVuSans-105"/>
      <use x="155.371094" xlink:href="#DejaVuSans-115"/>
      <use x="207.470703" xlink:href="#DejaVuSans-32"/>
      <use x="239.257812" xlink:href="#DejaVuSans-49"/>
      <use x="302.880859" xlink:href="#DejaVuSans-32"/>
      <use x="334.667969" xlink:href="#DejaVuSans-40"/>
      <use x="373.681641" xlink:href="#DejaVuSans-50"/>
      <use x="437.304688" xlink:href="#DejaVuSans-54"/>
      <use x="500.927734" xlink:href="#DejaVuSans-46"/>
      <use x="532.714844" xlink:href="#DejaVuSans-56"/>
      <use x="596.337891" xlink:href="#DejaVuSans-51"/>
      <use x="659.960938" xlink:href="#DejaVuSans-37"/>
      <use x="754.980469" xlink:href="#DejaVuSans-41"/>
     </g>
    </g>
   </g>
   <g id="matplotlib.axis_2">
    <g id="ytick_1">
     <g id="line2d_4">
      <defs>
       <path d="M 0 0 
L -3.5 0 
" id="mf2195aa0d6" style="stroke:#000000;stroke-width:0.8;"/>
      </defs>
      <g>
       <use style="stroke:#000000;stroke-width:0.8;" x="57.62" xlink:href="#mf2195aa0d6" y="242.033821"/>
      </g>
     </g>
     <g id="text_5">
      <!-- −0.2 -->
      <g transform="translate(26.337188 245.83304)scale(0.1 -0.1)">
       <use xlink:href="#DejaVuSans-8722"/>
       <use x="83.789062" xlink:href="#DejaVuSans-48"/>
       <use x="147.412109" xlink:href="#DejaVuSans-46"/>
       <use x="179.199219" xlink:href="#DejaVuSans-50"/>
      </g>
     </g>
    </g>
    <g id="ytick_2">
     <g id="line2d_5">
      <g>
       <use style="stroke:#000000;stroke-width:0.8;" x="57.62" xlink:href="#mf2195aa0d6" y="195.631793"/>
      </g>
     </g>
     <g id="text_6">
      <!-- 0.0 -->
      <g transform="translate(34.716875 199.431012)scale(0.1 -0.1)">
       <use xlink:href="#DejaVuSans-48"/>
       <use x="63.623047" xlink:href="#DejaVuSans-46"/>
       <use x="95.410156" xlink:href="#DejaVuSans-48"/>
      </g>
     </g>
    </g>
    <g id="ytick_3">
     <g id="line2d_6">
      <g>
       <use style="stroke:#000000;stroke-width:0.8;" x="57.62" xlink:href="#mf2195aa0d6" y="149.229766"/>
      </g>
     </g>
     <g id="text_7">
      <!-- 0.2 -->
      <g transform="translate(34.716875 153.028985)scale(0.1 -0.1)">
       <use xlink:href="#DejaVuSans-48"/>
       <use x="63.623047" xlink:href="#DejaVuSans-46"/>
       <use x="95.410156" xlink:href="#DejaVuSans-50"/>
      </g>
     </g>
    </g>
    <g id="ytick_4">
     <g id="line2d_7">
      <g>
       <use style="stroke:#000000;stroke-width:0.8;" x="57.62" xlink:href="#mf2195aa0d6" y="102.827738"/>
      </g>
     </g>
     <g id="text_8">
      <!-- 0.4 -->
      <defs>
       <path d="M 37.796875 64.3125 
L 12.890625 25.390625 
L 37.796875 25.390625 
z
M 35.203125 72.90625 
L 47.609375 72.90625 
L 47.609375 25.390625 
L 58.015625 25.390625 
L 58.015625 17.1875 
L 47.609375 17.1875 
L 47.609375 0 
L 37.796875 0 
L 37.796875 17.1875 
L 4.890625 17.1875 
L 4.890625 26.703125 
z
" id="DejaVuSans-52"/>
      </defs>
      <g transform="translate(34.716875 106.626957)scale(0.1 -0.1)">
       <use xlink:href="#DejaVuSans-48"/>
       <use x="63.623047" xlink:href="#DejaVuSans-46"/>
       <use x="95.410156" xlink:href="#DejaVuSans-52"/>
      </g>
     </g>
    </g>
    <g id="ytick_5">
     <g id="line2d_8">
      <g>
       <use style="stroke:#000000;stroke-width:0.8;" x="57.62" xlink:href="#mf2195aa0d6" y="56.425711"/>
      </g>
     </g>
     <g id="text_9">
      <!-- 0.6 -->
      <g transform="translate(34.716875 60.22493)scale(0.1 -0.1)">
       <use xlink:href="#DejaVuSans-48"/>
       <use x="63.623047" xlink:href="#DejaVuSans-46"/>
       <use x="95.410156" xlink:href="#DejaVuSans-54"/>
      </g>
     </g>
    </g>
    <g id="text_10">
     <!-- Axis 2 (16.52%) -->
     <defs>
      <path d="M 10.796875 72.90625 
L 49.515625 72.90625 
L 49.515625 64.59375 
L 19.828125 64.59375 
L 19.828125 46.734375 
Q 21.96875 47.46875 24.109375 47.828125 
Q 26.265625 48.1875 28.421875 48.1875 
Q 40.625 48.1875 47.75 41.5 
Q 54.890625 34.8125 54.890625 23.390625 
Q 54.890625 11.625 47.5625 5.09375 
Q 40.234375 -1.421875 26.90625 -1.421875 
Q 22.3125 -1.421875 17.546875 -0.640625 
Q 12.796875 0.140625 7.71875 1.703125 
L 7.71875 11.625 
Q 12.109375 9.234375 16.796875 8.0625 
Q 21.484375 6.890625 26.703125 6.890625 
Q 35.15625 6.890625 40.078125 11.328125 
Q 45.015625 15.765625 45.015625 23.390625 
Q 45.015625 31 40.078125 35.4375 
Q 35.15625 39.890625 26.703125 39.890625 
Q 22.75 39.890625 18.8125 39.015625 
Q 14.890625 38.140625 10.796875 36.28125 
z
" id="DejaVuSans-53"/>
     </defs>
     <g transform="translate(19.841562 175.519062)rotate(-90)scale(0.12 -0.12)">
      <use xlink:href="#DejaVuSans-65"/>
      <use x="68.408203" xlink:href="#DejaVuSans-120"/>
      <use x="127.587891" xlink:href="#DejaVuSans-105"/>
      <use x="155.371094" xlink:href="#DejaVuSans-115"/>
      <use x="207.470703" xlink:href="#DejaVuSans-32"/>
      <use x="239.257812" xlink:href="#DejaVuSans-50"/>
      <use x="302.880859" xlink:href="#DejaVuSans-32"/>
      <use x="334.667969" xlink:href="#DejaVuSans-40"/>
      <use x="373.681641" xlink:href="#DejaVuSans-49"/>
      <use x="437.304688" xlink:href="#DejaVuSans-54"/>
      <use x="500.927734" xlink:href="#DejaVuSans-46"/>
      <use x="532.714844" xlink:href="#DejaVuSans-53"/>
      <use x="596.337891" xlink:href="#DejaVuSans-50"/>
      <use x="659.960938" xlink:href="#DejaVuSans-37"/>
      <use x="754.980469" xlink:href="#DejaVuSans-41"/>
     </g>
    </g>
   </g>
   <g id="patch_3">
    <path d="M 57.62 244.96 
L 57.62 10.8 
" style="fill:none;stroke:#000000;stroke-linecap:square;stroke-linejoin:miter;stroke-width:0.8;"/>
   </g>
   <g id="patch_4">
    <path d="M 57.62 244.96 
L 277.2 244.96 
" style="fill:none;stroke:#000000;stroke-linecap:square;stroke-linejoin:miter;stroke-width:0.8;"/>
   </g>
   <g id="legend_1">
    <g id="patch_5">
     <path d="M 109.785 194.9375 
L 225.035 194.9375 
Q 227.035 194.9375 227.035 192.9375 
L 227.035 17.8 
Q 227.035 15.8 225.035 15.8 
L 109.785 15.8 
Q 107.785 15.8 107.785 17.8 
L 107.785 192.9375 
Q 107.785 194.9375 109.785 194.9375 
z
" style="fill:#ffffff;opacity:0.8;stroke:#cccccc;stroke-linejoin:miter;"/>
    </g>
    <g id="PathCollection_14">
     <defs>
      <path id="m7a6ce3be23" style="stroke:#ffffff;stroke-width:1.5;"/>
     </defs>
     <g>
      <use style="fill:#ffffff;stroke:#ffffff;stroke-width:1.5;" x="121.785" xlink:href="#m7a6ce3be23" y="24.773438"/>
     </g>
    </g>
    <g id="text_11">
     <!-- treatment-group -->
     <defs>
      <path d="M 18.3125 70.21875 
L 18.3125 54.6875 
L 36.8125 54.6875 
L 36.8125 47.703125 
L 18.3125 47.703125 
L 18.3125 18.015625 
Q 18.3125 11.328125 20.140625 9.421875 
Q 21.96875 7.515625 27.59375 7.515625 
L 36.8125 7.515625 
L 36.8125 0 
L 27.59375 0 
Q 17.1875 0 13.234375 3.875 
Q 9.28125 7.765625 9.28125 18.015625 
L 9.28125 47.703125 
L 2.6875 47.703125 
L 2.6875 54.6875 
L 9.28125 54.6875 
L 9.28125 70.21875 
z
" id="DejaVuSans-116"/>
      <path d="M 41.109375 46.296875 
Q 39.59375 47.171875 37.8125 47.578125 
Q 36.03125 48 33.890625 48 
Q 26.265625 48 22.1875 43.046875 
Q 18.109375 38.09375 18.109375 28.8125 
L 18.109375 0 
L 9.078125 0 
L 9.078125 54.6875 
L 18.109375 54.6875 
L 18.109375 46.1875 
Q 20.953125 51.171875 25.484375 53.578125 
Q 30.03125 56 36.53125 56 
Q 37.453125 56 38.578125 55.875 
Q 39.703125 55.765625 41.0625 55.515625 
z
" id="DejaVuSans-114"/>
      <path d="M 56.203125 29.59375 
L 56.203125 25.203125 
L 14.890625 25.203125 
Q 15.484375 15.921875 20.484375 11.0625 
Q 25.484375 6.203125 34.421875 6.203125 
Q 39.59375 6.203125 44.453125 7.46875 
Q 49.3125 8.734375 54.109375 11.28125 
L 54.109375 2.78125 
Q 49.265625 0.734375 44.1875 -0.34375 
Q 39.109375 -1.421875 33.890625 -1.421875 
Q 20.796875 -1.421875 13.15625 6.1875 
Q 5.515625 13.8125 5.515625 26.8125 
Q 5.515625 40.234375 12.765625 48.109375 
Q 20.015625 56 32.328125 56 
Q 43.359375 56 49.78125 48.890625 
Q 56.203125 41.796875 56.203125 29.59375 
z
M 47.21875 32.234375 
Q 47.125 39.59375 43.09375 43.984375 
Q 39.0625 48.390625 32.421875 48.390625 
Q 24.90625 48.390625 20.390625 44.140625 
Q 15.875 39.890625 15.1875 32.171875 
z
" id="DejaVuSans-101"/>
      <path d="M 34.28125 27.484375 
Q 23.390625 27.484375 19.1875 25 
Q 14.984375 22.515625 14.984375 16.5 
Q 14.984375 11.71875 18.140625 8.90625 
Q 21.296875 6.109375 26.703125 6.109375 
Q 34.1875 6.109375 38.703125 11.40625 
Q 43.21875 16.703125 43.21875 25.484375 
L 43.21875 27.484375 
z
M 52.203125 31.203125 
L 52.203125 0 
L 43.21875 0 
L 43.21875 8.296875 
Q 40.140625 3.328125 35.546875 0.953125 
Q 30.953125 -1.421875 24.3125 -1.421875 
Q 15.921875 -1.421875 10.953125 3.296875 
Q 6 8.015625 6 15.921875 
Q 6 25.140625 12.171875 29.828125 
Q 18.359375 34.515625 30.609375 34.515625 
L 43.21875 34.515625 
L 43.21875 35.40625 
Q 43.21875 41.609375 39.140625 45 
Q 35.0625 48.390625 27.6875 48.390625 
Q 23 48.390625 18.546875 47.265625 
Q 14.109375 46.140625 10.015625 43.890625 
L 10.015625 52.203125 
Q 14.9375 54.109375 19.578125 55.046875 
Q 24.21875 56 28.609375 56 
Q 40.484375 56 46.34375 49.84375 
Q 52.203125 43.703125 52.203125 31.203125 
z
" id="DejaVuSans-97"/>
      <path d="M 52 44.1875 
Q 55.375 50.25 60.0625 53.125 
Q 64.75 56 71.09375 56 
Q 79.640625 56 84.28125 50.015625 
Q 88.921875 44.046875 88.921875 33.015625 
L 88.921875 0 
L 79.890625 0 
L 79.890625 32.71875 
Q 79.890625 40.578125 77.09375 44.375 
Q 74.3125 48.1875 68.609375 48.1875 
Q 61.625 48.1875 57.5625 43.546875 
Q 53.515625 38.921875 53.515625 30.90625 
L 53.515625 0 
L 44.484375 0 
L 44.484375 32.71875 
Q 44.484375 40.625 41.703125 44.40625 
Q 38.921875 48.1875 33.109375 48.1875 
Q 26.21875 48.1875 22.15625 43.53125 
Q 18.109375 38.875 18.109375 30.90625 
L 18.109375 0 
L 9.078125 0 
L 9.078125 54.6875 
L 18.109375 54.6875 
L 18.109375 46.1875 
Q 21.1875 51.21875 25.484375 53.609375 
Q 29.78125 56 35.6875 56 
Q 41.65625 56 45.828125 52.96875 
Q 50 49.953125 52 44.1875 
z
" id="DejaVuSans-109"/>
      <path d="M 54.890625 33.015625 
L 54.890625 0 
L 45.90625 0 
L 45.90625 32.71875 
Q 45.90625 40.484375 42.875 44.328125 
Q 39.84375 48.1875 33.796875 48.1875 
Q 26.515625 48.1875 22.3125 43.546875 
Q 18.109375 38.921875 18.109375 30.90625 
L 18.109375 0 
L 9.078125 0 
L 9.078125 54.6875 
L 18.109375 54.6875 
L 18.109375 46.1875 
Q 21.34375 51.125 25.703125 53.5625 
Q 30.078125 56 35.796875 56 
Q 45.21875 56 50.046875 50.171875 
Q 54.890625 44.34375 54.890625 33.015625 
z
" id="DejaVuSans-110"/>
      <path d="M 4.890625 31.390625 
L 31.203125 31.390625 
L 31.203125 23.390625 
L 4.890625 23.390625 
z
" id="DejaVuSans-45"/>
      <path d="M 45.40625 27.984375 
Q 45.40625 37.75 41.375 43.109375 
Q 37.359375 48.484375 30.078125 48.484375 
Q 22.859375 48.484375 18.828125 43.109375 
Q 14.796875 37.75 14.796875 27.984375 
Q 14.796875 18.265625 18.828125 12.890625 
Q 22.859375 7.515625 30.078125 7.515625 
Q 37.359375 7.515625 41.375 12.890625 
Q 45.40625 18.265625 45.40625 27.984375 
z
M 54.390625 6.78125 
Q 54.390625 -7.171875 48.1875 -13.984375 
Q 42 -20.796875 29.203125 -20.796875 
Q 24.46875 -20.796875 20.265625 -20.09375 
Q 16.0625 -19.390625 12.109375 -17.921875 
L 12.109375 -9.1875 
Q 16.0625 -11.328125 19.921875 -12.34375 
Q 23.78125 -13.375 27.78125 -13.375 
Q 36.625 -13.375 41.015625 -8.765625 
Q 45.40625 -4.15625 45.40625 5.171875 
L 45.40625 9.625 
Q 42.625 4.78125 38.28125 2.390625 
Q 33.9375 0 27.875 0 
Q 17.828125 0 11.671875 7.65625 
Q 5.515625 15.328125 5.515625 27.984375 
Q 5.515625 40.671875 11.671875 48.328125 
Q 17.828125 56 27.875 56 
Q 33.9375 56 38.28125 53.609375 
Q 42.625 51.21875 45.40625 46.390625 
L 45.40625 54.6875 
L 54.390625 54.6875 
z
" id="DejaVuSans-103"/>
      <path d="M 30.609375 48.390625 
Q 23.390625 48.390625 19.1875 42.75 
Q 14.984375 37.109375 14.984375 27.296875 
Q 14.984375 17.484375 19.15625 11.84375 
Q 23.34375 6.203125 30.609375 6.203125 
Q 37.796875 6.203125 41.984375 11.859375 
Q 46.1875 17.53125 46.1875 27.296875 
Q 46.1875 37.015625 41.984375 42.703125 
Q 37.796875 48.390625 30.609375 48.390625 
z
M 30.609375 56 
Q 42.328125 56 49.015625 48.375 
Q 55.71875 40.765625 55.71875 27.296875 
Q 55.71875 13.875 49.015625 6.21875 
Q 42.328125 -1.421875 30.609375 -1.421875 
Q 18.84375 -1.421875 12.171875 6.21875 
Q 5.515625 13.875 5.515625 27.296875 
Q 5.515625 40.765625 12.171875 48.375 
Q 18.84375 56 30.609375 56 
z
" id="DejaVuSans-111"/>
      <path d="M 8.5 21.578125 
L 8.5 54.6875 
L 17.484375 54.6875 
L 17.484375 21.921875 
Q 17.484375 14.15625 20.5 10.265625 
Q 23.53125 6.390625 29.59375 6.390625 
Q 36.859375 6.390625 41.078125 11.03125 
Q 45.3125 15.671875 45.3125 23.6875 
L 45.3125 54.6875 
L 54.296875 54.6875 
L 54.296875 0 
L 45.3125 0 
L 45.3125 8.40625 
Q 42.046875 3.421875 37.71875 1 
Q 33.40625 -1.421875 27.6875 -1.421875 
Q 18.265625 -1.421875 13.375 4.4375 
Q 8.5 10.296875 8.5 21.578125 
z
M 31.109375 56 
z
" id="DejaVuSans-117"/>
      <path d="M 18.109375 8.203125 
L 18.109375 -20.796875 
L 9.078125 -20.796875 
L 9.078125 54.6875 
L 18.109375 54.6875 
L 18.109375 46.390625 
Q 20.953125 51.265625 25.265625 53.625 
Q 29.59375 56 35.59375 56 
Q 45.5625 56 51.78125 48.09375 
Q 58.015625 40.1875 58.015625 27.296875 
Q 58.015625 14.40625 51.78125 6.484375 
Q 45.5625 -1.421875 35.59375 -1.421875 
Q 29.59375 -1.421875 25.265625 0.953125 
Q 20.953125 3.328125 18.109375 8.203125 
z
M 48.6875 27.296875 
Q 48.6875 37.203125 44.609375 42.84375 
Q 40.53125 48.484375 33.40625 48.484375 
Q 26.265625 48.484375 22.1875 42.84375 
Q 18.109375 37.203125 18.109375 27.296875 
Q 18.109375 17.390625 22.1875 11.75 
Q 26.265625 6.109375 33.40625 6.109375 
Q 40.53125 6.109375 44.609375 11.75 
Q 48.6875 17.390625 48.6875 27.296875 
z
" id="DejaVuSans-112"/>
     </defs>
     <g transform="translate(139.785 27.398438)scale(0.1 -0.1)">
      <use xlink:href="#DejaVuSans-116"/>
      <use x="39.208984" xlink:href="#DejaVuSans-114"/>
      <use x="80.291016" xlink:href="#DejaVuSans-101"/>
      <use x="141.814453" xlink:href="#DejaVuSans-97"/>
      <use x="203.09375" xlink:href="#DejaVuSans-116"/>
      <use x="242.302734" xlink:href="#DejaVuSans-109"/>
      <use x="339.714844" xlink:href="#DejaVuSans-101"/>
      <use x="401.238281" xlink:href="#DejaVuSans-110"/>
      <use x="464.617188" xlink:href="#DejaVuSans-116"/>
      <use x="503.826172" xlink:href="#DejaVuSans-45"/>
      <use x="539.910156" xlink:href="#DejaVuSans-103"/>
      <use x="603.386719" xlink:href="#DejaVuSans-114"/>
      <use x="644.46875" xlink:href="#DejaVuSans-111"/>
      <use x="705.650391" xlink:href="#DejaVuSans-117"/>
      <use x="769.029297" xlink:href="#DejaVuSans-112"/>
     </g>
    </g>
    <g id="PathCollection_15">
     <defs>
      <path d="M 0 3 
C 0.795609 3 1.55874 2.683901 2.12132 2.12132 
C 2.683901 1.55874 3 0.795609 3 0 
C 3 -0.795609 2.683901 -1.55874 2.12132 -2.12132 
C 1.55874 -2.683901 0.795609 -3 0 -3 
C -0.795609 -3 -1.55874 -2.683901 -2.12132 -2.12132 
C -2.683901 -1.55874 -3 -0.795609 -3 0 
C -3 0.795609 -2.683901 1.55874 -2.12132 2.12132 
C -1.55874 2.683901 -0.795609 3 0 3 
z
" id="m2872e9cd6b" style="stroke:#ea706a;"/>
     </defs>
     <g>
      <use style="fill:#ea706a;stroke:#ea706a;" x="121.785" xlink:href="#m2872e9cd6b" y="39.451563"/>
     </g>
    </g>
    <g id="text_12">
     <!-- WT -->
     <defs>
      <path d="M 3.328125 72.90625 
L 13.28125 72.90625 
L 28.609375 11.28125 
L 43.890625 72.90625 
L 54.984375 72.90625 
L 70.3125 11.28125 
L 85.59375 72.90625 
L 95.609375 72.90625 
L 77.296875 0 
L 64.890625 0 
L 49.515625 63.28125 
L 33.984375 0 
L 21.578125 0 
z
" id="DejaVuSans-87"/>
      <path d="M -0.296875 72.90625 
L 61.375 72.90625 
L 61.375 64.59375 
L 35.5 64.59375 
L 35.5 0 
L 25.59375 0 
L 25.59375 64.59375 
L -0.296875 64.59375 
z
" id="DejaVuSans-84"/>
     </defs>
     <g transform="translate(139.785 42.076563)scale(0.1 -0.1)">
      <use xlink:href="#DejaVuSans-87"/>
      <use x="98.876953" xlink:href="#DejaVuSans-84"/>
     </g>
    </g>
    <g id="PathCollection_16">
     <defs>
      <path d="M 0 3 
C 0.795609 3 1.55874 2.683901 2.12132 2.12132 
C 2.683901 1.55874 3 0.795609 3 0 
C 3 -0.795609 2.683901 -1.55874 2.12132 -2.12132 
C 1.55874 -2.683901 0.795609 -3 0 -3 
C -0.795609 -3 -1.55874 -2.683901 -2.12132 -2.12132 
C -2.683901 -1.55874 -3 -0.795609 -3 0 
C -3 0.795609 -2.683901 1.55874 -2.12132 2.12132 
C -1.55874 2.683901 -0.795609 3 0 3 
z
" id="mfd2a0cf230" style="stroke:#3482f4;"/>
     </defs>
     <g>
      <use style="fill:#3482f4;stroke:#3482f4;" x="121.785" xlink:href="#mfd2a0cf230" y="54.129688"/>
     </g>
    </g>
    <g id="text_13">
     <!-- spTEM1 -->
     <defs>
      <path d="M 9.8125 72.90625 
L 55.90625 72.90625 
L 55.90625 64.59375 
L 19.671875 64.59375 
L 19.671875 43.015625 
L 54.390625 43.015625 
L 54.390625 34.71875 
L 19.671875 34.71875 
L 19.671875 8.296875 
L 56.78125 8.296875 
L 56.78125 0 
L 9.8125 0 
z
" id="DejaVuSans-69"/>
      <path d="M 9.8125 72.90625 
L 24.515625 72.90625 
L 43.109375 23.296875 
L 61.8125 72.90625 
L 76.515625 72.90625 
L 76.515625 0 
L 66.890625 0 
L 66.890625 64.015625 
L 48.09375 14.015625 
L 38.1875 14.015625 
L 19.390625 64.015625 
L 19.390625 0 
L 9.8125 0 
z
" id="DejaVuSans-77"/>
     </defs>
     <g transform="translate(139.785 56.754688)scale(0.1 -0.1)">
      <use xlink:href="#DejaVuSans-115"/>
      <use x="52.099609" xlink:href="#DejaVuSans-112"/>
      <use x="115.576172" xlink:href="#DejaVuSans-84"/>
      <use x="176.660156" xlink:href="#DejaVuSans-69"/>
      <use x="239.84375" xlink:href="#DejaVuSans-77"/>
      <use x="326.123047" xlink:href="#DejaVuSans-49"/>
     </g>
    </g>
    <g id="PathCollection_17">
     <g>
      <use style="fill:#ffffff;stroke:#ffffff;stroke-width:1.5;" x="121.785" xlink:href="#m7a6ce3be23" y="68.807813"/>
     </g>
    </g>
    <g id="text_14">
     <!-- time-point-day -->
     <defs>
      <path d="M 45.40625 46.390625 
L 45.40625 75.984375 
L 54.390625 75.984375 
L 54.390625 0 
L 45.40625 0 
L 45.40625 8.203125 
Q 42.578125 3.328125 38.25 0.953125 
Q 33.9375 -1.421875 27.875 -1.421875 
Q 17.96875 -1.421875 11.734375 6.484375 
Q 5.515625 14.40625 5.515625 27.296875 
Q 5.515625 40.1875 11.734375 48.09375 
Q 17.96875 56 27.875 56 
Q 33.9375 56 38.25 53.625 
Q 42.578125 51.265625 45.40625 46.390625 
z
M 14.796875 27.296875 
Q 14.796875 17.390625 18.875 11.75 
Q 22.953125 6.109375 30.078125 6.109375 
Q 37.203125 6.109375 41.296875 11.75 
Q 45.40625 17.390625 45.40625 27.296875 
Q 45.40625 37.203125 41.296875 42.84375 
Q 37.203125 48.484375 30.078125 48.484375 
Q 22.953125 48.484375 18.875 42.84375 
Q 14.796875 37.203125 14.796875 27.296875 
z
" id="DejaVuSans-100"/>
      <path d="M 32.171875 -5.078125 
Q 28.375 -14.84375 24.75 -17.8125 
Q 21.140625 -20.796875 15.09375 -20.796875 
L 7.90625 -20.796875 
L 7.90625 -13.28125 
L 13.1875 -13.28125 
Q 16.890625 -13.28125 18.9375 -11.515625 
Q 21 -9.765625 23.484375 -3.21875 
L 25.09375 0.875 
L 2.984375 54.6875 
L 12.5 54.6875 
L 29.59375 11.921875 
L 46.6875 54.6875 
L 56.203125 54.6875 
z
" id="DejaVuSans-121"/>
     </defs>
     <g transform="translate(139.785 71.432813)scale(0.1 -0.1)">
      <use xlink:href="#DejaVuSans-116"/>
      <use x="39.208984" xlink:href="#DejaVuSans-105"/>
      <use x="66.992188" xlink:href="#DejaVuSans-109"/>
      <use x="164.404297" xlink:href="#DejaVuSans-101"/>
      <use x="225.927734" xlink:href="#DejaVuSans-45"/>
      <use x="262.011719" xlink:href="#DejaVuSans-112"/>
      <use x="325.488281" xlink:href="#DejaVuSans-111"/>
      <use x="386.669922" xlink:href="#DejaVuSans-105"/>
      <use x="414.453125" xlink:href="#DejaVuSans-110"/>
      <use x="477.832031" xlink:href="#DejaVuSans-116"/>
      <use x="517.041016" xlink:href="#DejaVuSans-45"/>
      <use x="553.125" xlink:href="#DejaVuSans-100"/>
      <use x="616.601562" xlink:href="#DejaVuSans-97"/>
      <use x="677.880859" xlink:href="#DejaVuSans-121"/>
     </g>
    </g>
    <g id="PathCollection_18">
     <defs>
      <path d="M 0 3 
C 0.795609 3 1.55874 2.683901 2.12132 2.12132 
C 2.683901 1.55874 3 0.795609 3 0 
C 3 -0.795609 2.683901 -1.55874 2.12132 -2.12132 
C 1.55874 -2.683901 0.795609 -3 0 -3 
C -0.795609 -3 -1.55874 -2.683901 -2.12132 -2.12132 
C -2.683901 -1.55874 -3 -0.795609 -3 0 
C -3 0.795609 -2.683901 1.55874 -2.12132 2.12132 
C -1.55874 2.683901 -0.795609 3 0 3 
z
" id="ma6964fb8bf" style="stroke:#333333;"/>
     </defs>
     <g>
      <use style="fill:#333333;stroke:#333333;" x="121.785" xlink:href="#ma6964fb8bf" y="83.485938"/>
     </g>
    </g>
    <g id="text_15">
     <!-- 0 -->
     <g transform="translate(139.785 86.110938)scale(0.1 -0.1)">
      <use xlink:href="#DejaVuSans-48"/>
     </g>
    </g>
    <g id="PathCollection_19">
     <defs>
      <path d="M -3 -0 
L 3 3 
L 3 -3 
z
" id="m0863c4c0e8" style="stroke:#333333;"/>
     </defs>
     <g>
      <use style="fill:#333333;stroke:#333333;" x="121.785" xlink:href="#m0863c4c0e8" y="98.164062"/>
     </g>
    </g>
    <g id="text_16">
     <!-- 1 -->
     <g transform="translate(139.785 100.789062)scale(0.1 -0.1)">
      <use xlink:href="#DejaVuSans-49"/>
     </g>
    </g>
    <g id="PathCollection_20">
     <defs>
      <path d="M 3 0 
L -3 -3 
L -3 3 
z
" id="mae4928b3e7" style="stroke:#333333;"/>
     </defs>
     <g>
      <use style="fill:#333333;stroke:#333333;" x="121.785" xlink:href="#mae4928b3e7" y="112.842188"/>
     </g>
    </g>
    <g id="text_17">
     <!-- 2 -->
     <g transform="translate(139.785 115.467188)scale(0.1 -0.1)">
      <use xlink:href="#DejaVuSans-50"/>
     </g>
    </g>
    <g id="PathCollection_21">
     <defs>
      <path d="M 0 -3 
L -3 3 
L 3 3 
z
" id="m39171ec9b2" style="stroke:#333333;"/>
     </defs>
     <g>
      <use style="fill:#333333;stroke:#333333;" x="121.785" xlink:href="#m39171ec9b2" y="127.520312"/>
     </g>
    </g>
    <g id="text_18">
     <!-- 3 -->
     <g transform="translate(139.785 130.145312)scale(0.1 -0.1)">
      <use xlink:href="#DejaVuSans-51"/>
     </g>
    </g>
    <g id="PathCollection_22">
     <defs>
      <path d="M -0 4.242641 
L 2.545584 0 
L 0 -4.242641 
L -2.545584 -0 
z
" id="m536a6eecf8" style="stroke:#333333;"/>
     </defs>
     <g>
      <use style="fill:#333333;stroke:#333333;" x="121.785" xlink:href="#m536a6eecf8" y="142.198438"/>
     </g>
    </g>
    <g id="text_19">
     <!-- 5 -->
     <g transform="translate(139.785 144.823438)scale(0.1 -0.1)">
      <use xlink:href="#DejaVuSans-53"/>
     </g>
    </g>
    <g id="PathCollection_23">
     <defs>
      <path d="M -3 3 
L 3 3 
L 3 -3 
L -3 -3 
z
" id="ma393eca4b6" style="stroke:#333333;"/>
     </defs>
     <g>
      <use style="fill:#333333;stroke:#333333;" x="121.785" xlink:href="#ma393eca4b6" y="156.876562"/>
     </g>
    </g>
    <g id="text_20">
     <!-- 7 -->
     <defs>
      <path d="M 8.203125 72.90625 
L 55.078125 72.90625 
L 55.078125 68.703125 
L 28.609375 0 
L 18.3125 0 
L 43.21875 64.59375 
L 8.203125 64.59375 
z
" id="DejaVuSans-55"/>
     </defs>
     <g transform="translate(139.785 159.501562)scale(0.1 -0.1)">
      <use xlink:href="#DejaVuSans-55"/>
     </g>
    </g>
    <g id="PathCollection_24">
     <defs>
      <path d="M 0 -3 
L -2.85317 -0.927051 
L -1.763356 2.427051 
L 1.763356 2.427051 
L 2.85317 -0.927051 
z
" id="m7240a17475" style="stroke:#333333;"/>
     </defs>
     <g>
      <use style="fill:#333333;stroke:#333333;" x="121.785" xlink:href="#m7240a17475" y="171.554687"/>
     </g>
    </g>
    <g id="text_21">
     <!-- 9 -->
     <defs>
      <path d="M 10.984375 1.515625 
L 10.984375 10.5 
Q 14.703125 8.734375 18.5 7.8125 
Q 22.3125 6.890625 25.984375 6.890625 
Q 35.75 6.890625 40.890625 13.453125 
Q 46.046875 20.015625 46.78125 33.40625 
Q 43.953125 29.203125 39.59375 26.953125 
Q 35.25 24.703125 29.984375 24.703125 
Q 19.046875 24.703125 12.671875 31.3125 
Q 6.296875 37.9375 6.296875 49.421875 
Q 6.296875 60.640625 12.9375 67.421875 
Q 19.578125 74.21875 30.609375 74.21875 
Q 43.265625 74.21875 49.921875 64.515625 
Q 56.59375 54.828125 56.59375 36.375 
Q 56.59375 19.140625 48.40625 8.859375 
Q 40.234375 -1.421875 26.421875 -1.421875 
Q 22.703125 -1.421875 18.890625 -0.6875 
Q 15.09375 0.046875 10.984375 1.515625 
z
M 30.609375 32.421875 
Q 37.25 32.421875 41.125 36.953125 
Q 45.015625 41.5 45.015625 49.421875 
Q 45.015625 57.28125 41.125 61.84375 
Q 37.25 66.40625 30.609375 66.40625 
Q 23.96875 66.40625 20.09375 61.84375 
Q 16.21875 57.28125 16.21875 49.421875 
Q 16.21875 41.5 20.09375 36.953125 
Q 23.96875 32.421875 30.609375 32.421875 
z
" id="DejaVuSans-57"/>
     </defs>
     <g transform="translate(139.785 174.179687)scale(0.1 -0.1)">
      <use xlink:href="#DejaVuSans-57"/>
     </g>
    </g>
    <g id="PathCollection_25">
     <defs>
      <path d="M 0 -3 
L -0.673542 -0.927051 
L -2.85317 -0.927051 
L -1.089814 0.354102 
L -1.763356 2.427051 
L -0 1.145898 
L 1.763356 2.427051 
L 1.089814 0.354102 
L 2.85317 -0.927051 
L 0.673542 -0.927051 
z
" id="ma6981f0a71" style="stroke:#333333;"/>
     </defs>
     <g>
      <use style="fill:#333333;stroke:#333333;" x="121.785" xlink:href="#ma6981f0a71" y="186.232812"/>
     </g>
    </g>
    <g id="text_22">
     <!-- 12 -->
     <g transform="translate(139.785 188.857812)scale(0.1 -0.1)">
      <use xlink:href="#DejaVuSans-49"/>
      <use x="63.623047" xlink:href="#DejaVuSans-50"/>
     </g>
    </g>
   </g>
  </g>
 </g>
 <defs>
  <clipPath id="p890e4731da">
   <rect height="234.16" width="219.58" x="57.62" y="10.8"/>
  </clipPath>
 </defs>
</svg>
