<?xml version="1.0" encoding="utf-8" standalone="no"?>
<!DOCTYPE svg PUBLIC "-//W3C//DTD SVG 1.1//EN"
  "http://www.w3.org/Graphics/SVG/1.1/DTD/svg11.dtd">
<!-- Created with matplotlib (https://matplotlib.org/) -->
<svg height="288pt" version="1.1" viewBox="0 0 288 288" width="288pt" xmlns="http://www.w3.org/2000/svg" xmlns:xlink="http://www.w3.org/1999/xlink">
 <defs>
  <style type="text/css">
*{stroke-linecap:butt;stroke-linejoin:round;}
  </style>
 </defs>
 <g id="figure_1">
  <g id="patch_1">
   <path d="M 0 288 
L 288 288 
L 288 0 
L 0 0 
z
" style="fill:#ffffff;"/>
  </g>
  <g id="axes_1">
   <g id="patch_2">
    <path d="M 57.62 244.96 
L 277.2 244.96 
L 277.2 10.8 
L 57.62 10.8 
z
" style="fill:#ffffff;"/>
   </g>
   <g id="PathCollection_1">
    <path clip-path="url(#pda0f26d360)" d="M 72.232086 200.763642 
C 72.825098 200.763642 73.393902 200.528035 73.813225 200.108712 
C 74.232548 199.689389 74.468154 199.120586 74.468154 198.527574 
C 74.468154 197.934561 74.232548 197.365758 73.813225 196.946435 
C 73.393902 196.527112 72.825098 196.291506 72.232086 196.291506 
C 71.639074 196.291506 71.07027 196.527112 70.650947 196.946435 
C 70.231625 197.365758 69.996018 197.934561 69.996018 198.527574 
C 69.996018 199.120586 70.231625 199.689389 70.650947 200.108712 
C 71.07027 200.528035 71.639074 200.763642 72.232086 200.763642 
z
" style="fill:#3482f4;stroke:#000000;stroke-width:0.357771;"/>
    <path clip-path="url(#pda0f26d360)" d="M 74.914516 210.986364 
C 75.507528 210.986364 76.076332 210.750758 76.495655 210.331435 
C 76.914978 209.912112 77.150584 209.343308 77.150584 208.750296 
C 77.150584 208.157284 76.914978 207.58848 76.495655 207.169157 
C 76.076332 206.749834 75.507528 206.514228 74.914516 206.514228 
C 74.321504 206.514228 73.7527 206.749834 73.333377 207.169157 
C 72.914055 207.58848 72.678448 208.157284 72.678448 208.750296 
C 72.678448 209.343308 72.914055 209.912112 73.333377 210.331435 
C 73.7527 210.750758 74.321504 210.986364 74.914516 210.986364 
z
" style="fill:#3482f4;stroke:#000000;stroke-width:0.357771;"/>
    <path clip-path="url(#pda0f26d360)" d="M 72.085337 195.395259 
C 72.678349 195.395259 73.247153 195.159653 73.666476 194.74033 
C 74.085799 194.321007 74.321405 193.752203 74.321405 193.159191 
C 74.321405 192.566179 74.085799 191.997375 73.666476 191.578052 
C 73.247153 191.158729 72.678349 190.923123 72.085337 190.923123 
C 71.492325 190.923123 70.923521 191.158729 70.504198 191.578052 
C 70.084875 191.997375 69.849269 192.566179 69.849269 193.159191 
C 69.849269 193.752203 70.084875 194.321007 70.504198 194.74033 
C 70.923521 195.159653 71.492325 195.395259 72.085337 195.395259 
z
" style="fill:#3482f4;stroke:#000000;stroke-width:0.357771;"/>
    <path clip-path="url(#pda0f26d360)" d="M 73.167211 193.77179 
C 73.760223 193.77179 74.329027 193.536183 74.74835 193.11686 
C 75.167673 192.697538 75.403279 192.128734 75.403279 191.535722 
C 75.403279 190.94271 75.167673 190.373906 74.74835 189.954583 
C 74.329027 189.53526 73.760223 189.299654 73.167211 189.299654 
C 72.574199 189.299654 72.005395 189.53526 71.586072 189.954583 
C 71.166749 190.373906 70.931143 190.94271 70.931143 191.535722 
C 70.931143 192.128734 71.166749 192.697538 71.586072 193.11686 
C 72.005395 193.536183 72.574199 193.77179 73.167211 193.77179 
z
" style="fill:#3482f4;stroke:#000000;stroke-width:0.357771;"/>
    <path clip-path="url(#pda0f26d360)" d="M 74.694879 206.16171 
C 75.287891 206.16171 75.856695 205.926103 76.276018 205.50678 
C 76.695341 205.087458 76.930947 204.518654 76.930947 203.925642 
C 76.930947 203.332629 76.695341 202.763826 76.276018 202.344503 
C 75.856695 201.92518 75.287891 201.689574 74.694879 201.689574 
C 74.101867 201.689574 73.533063 201.92518 73.11374 202.344503 
C 72.694418 202.763826 72.458811 203.332629 72.458811 203.925642 
C 72.458811 204.518654 72.694418 205.087458 73.11374 205.50678 
C 73.533063 205.926103 74.101867 206.16171 74.694879 206.16171 
z
" style="fill:#3482f4;stroke:#000000;stroke-width:0.357771;"/>
    <path clip-path="url(#pda0f26d360)" d="M 71.749226 183.463415 
C 72.342238 183.463415 72.911042 183.227809 73.330365 182.808486 
C 73.749688 182.389163 73.985294 181.820359 73.985294 181.227347 
C 73.985294 180.634335 73.749688 180.065531 73.330365 179.646208 
C 72.911042 179.226885 72.342238 178.991279 71.749226 178.991279 
C 71.156214 178.991279 70.58741 179.226885 70.168087 179.646208 
C 69.748764 180.065531 69.513158 180.634335 69.513158 181.227347 
C 69.513158 181.820359 69.748764 182.389163 70.168087 182.808486 
C 70.58741 183.227809 71.156214 183.463415 71.749226 183.463415 
z
" style="fill:#3482f4;stroke:#000000;stroke-width:0.357771;"/>
    <path clip-path="url(#pda0f26d360)" d="M 80.90653 216.509239 
C 81.499542 216.509239 82.068346 216.273633 82.487669 215.85431 
C 82.906992 215.434987 83.142598 214.866183 83.142598 214.273171 
C 83.142598 213.680159 82.906992 213.111355 82.487669 212.692032 
C 82.068346 212.272709 81.499542 212.037103 80.90653 212.037103 
C 80.313518 212.037103 79.744714 212.272709 79.325391 212.692032 
C 78.906069 213.111355 78.670462 213.680159 78.670462 214.273171 
C 78.670462 214.866183 78.906069 215.434987 79.325391 215.85431 
C 79.744714 216.273633 80.313518 216.509239 80.90653 216.509239 
z
" style="fill:#3482f4;stroke:#000000;stroke-width:0.357771;"/>
    <path clip-path="url(#pda0f26d360)" d="M 73.025373 165.609118 
C 73.618385 165.609118 74.187189 165.373512 74.606512 164.954189 
C 75.025835 164.534866 75.261441 163.966062 75.261441 163.37305 
C 75.261441 162.780038 75.025835 162.211234 74.606512 161.791911 
C 74.187189 161.372588 73.618385 161.136982 73.025373 161.136982 
C 72.432361 161.136982 71.863557 161.372588 71.444234 161.791911 
C 71.024911 162.211234 70.789305 162.780038 70.789305 163.37305 
C 70.789305 163.966062 71.024911 164.534866 71.444234 164.954189 
C 71.863557 165.373512 72.432361 165.609118 73.025373 165.609118 
z
" style="fill:#3482f4;stroke:#000000;stroke-width:0.357771;"/>
    <path clip-path="url(#pda0f26d360)" d="M 73.514977 218.552 
C 74.107989 218.552 74.676793 218.316393 75.096116 217.89707 
C 75.515439 217.477747 75.751045 216.908944 75.751045 216.315932 
C 75.751045 215.722919 75.515439 215.154116 75.096116 214.734793 
C 74.676793 214.31547 74.107989 214.079864 73.514977 214.079864 
C 72.921965 214.079864 72.353161 214.31547 71.933838 214.734793 
C 71.514515 215.154116 71.278909 215.722919 71.278909 216.315932 
C 71.278909 216.908944 71.514515 217.477747 71.933838 217.89707 
C 72.353161 218.316393 72.921965 218.552 73.514977 218.552 
z
" style="fill:#3482f4;stroke:#000000;stroke-width:0.357771;"/>
    <path clip-path="url(#pda0f26d360)" d="M 70.320219 210.008913 
C 70.913231 210.008913 71.482035 209.773307 71.901358 209.353984 
C 72.320681 208.934661 72.556287 208.365857 72.556287 207.772845 
C 72.556287 207.179833 72.320681 206.611029 71.901358 206.191706 
C 71.482035 205.772383 70.913231 205.536777 70.320219 205.536777 
C 69.727207 205.536777 69.158403 205.772383 68.73908 206.191706 
C 68.319758 206.611029 68.084151 207.179833 68.084151 207.772845 
C 68.084151 208.365857 68.319758 208.934661 68.73908 209.353984 
C 69.158403 209.773307 69.727207 210.008913 70.320219 210.008913 
z
" style="fill:#3482f4;stroke:#000000;stroke-width:0.357771;"/>
    <path clip-path="url(#pda0f26d360)" d="M 70.259805 209.380558 
C 70.852817 209.380558 71.421621 209.144952 71.840944 208.725629 
C 72.260267 208.306306 72.495873 207.737503 72.495873 207.14449 
C 72.495873 206.551478 72.260267 205.982675 71.840944 205.563352 
C 71.421621 205.144029 70.852817 204.908423 70.259805 204.908423 
C 69.666793 204.908423 69.097989 205.144029 68.678666 205.563352 
C 68.259343 205.982675 68.023737 206.551478 68.023737 207.14449 
C 68.023737 207.737503 68.259343 208.306306 68.678666 208.725629 
C 69.097989 209.144952 69.666793 209.380558 70.259805 209.380558 
z
" style="fill:#ea706a;stroke:#000000;stroke-width:0.357771;"/>
    <path clip-path="url(#pda0f26d360)" d="M 73.264625 185.781982 
C 73.857637 185.781982 74.426441 185.546376 74.845763 185.127053 
C 75.265086 184.70773 75.500693 184.138926 75.500693 183.545914 
C 75.500693 182.952902 75.265086 182.384098 74.845763 181.964775 
C 74.426441 181.545452 73.857637 181.309846 73.264625 181.309846 
C 72.671612 181.309846 72.102809 181.545452 71.683486 181.964775 
C 71.264163 182.384098 71.028557 182.952902 71.028557 183.545914 
C 71.028557 184.138926 71.264163 184.70773 71.683486 185.127053 
C 72.102809 185.546376 72.671612 185.781982 73.264625 185.781982 
z
" style="fill:#ea706a;stroke:#000000;stroke-width:0.357771;"/>
    <path clip-path="url(#pda0f26d360)" d="M 86.342097 224.807848 
C 86.935109 224.807848 87.503913 224.572242 87.923236 224.152919 
C 88.342558 223.733596 88.578165 223.164792 88.578165 222.57178 
C 88.578165 221.978768 88.342558 221.409964 87.923236 220.990641 
C 87.503913 220.571319 86.935109 220.335712 86.342097 220.335712 
C 85.749085 220.335712 85.180281 220.571319 84.760958 220.990641 
C 84.341635 221.409964 84.106029 221.978768 84.106029 222.57178 
C 84.106029 223.164792 84.341635 223.733596 84.760958 224.152919 
C 85.180281 224.572242 85.749085 224.807848 86.342097 224.807848 
z
" style="fill:#ea706a;stroke:#000000;stroke-width:0.357771;"/>
    <path clip-path="url(#pda0f26d360)" d="M 70.378376 193.617401 
C 70.971388 193.617401 71.540192 193.381794 71.959515 192.962471 
C 72.378838 192.543149 72.614444 191.974345 72.614444 191.381333 
C 72.614444 190.78832 72.378838 190.219517 71.959515 189.800194 
C 71.540192 189.380871 70.971388 189.145265 70.378376 189.145265 
C 69.785364 189.145265 69.21656 189.380871 68.797237 189.800194 
C 68.377914 190.219517 68.142308 190.78832 68.142308 191.381333 
C 68.142308 191.974345 68.377914 192.543149 68.797237 192.962471 
C 69.21656 193.381794 69.785364 193.617401 70.378376 193.617401 
z
" style="fill:#ea706a;stroke:#000000;stroke-width:0.357771;"/>
    <path clip-path="url(#pda0f26d360)" d="M 71.53043 201.191512 
C 72.123442 201.191512 72.692246 200.955906 73.111569 200.536583 
C 73.530892 200.11726 73.766498 199.548456 73.766498 198.955444 
C 73.766498 198.362432 73.530892 197.793628 73.111569 197.374305 
C 72.692246 196.954982 72.123442 196.719376 71.53043 196.719376 
C 70.937418 196.719376 70.368614 196.954982 69.949291 197.374305 
C 69.529969 197.793628 69.294362 198.362432 69.294362 198.955444 
C 69.294362 199.548456 69.529969 200.11726 69.949291 200.536583 
C 70.368614 200.955906 70.937418 201.191512 71.53043 201.191512 
z
" style="fill:#ea706a;stroke:#000000;stroke-width:0.357771;"/>
    <path clip-path="url(#pda0f26d360)" d="M 76.780439 208.933798 
C 77.373451 208.933798 77.942255 208.698191 78.361578 208.278868 
C 78.780901 207.859546 79.016507 207.290742 79.016507 206.69773 
C 79.016507 206.104717 78.780901 205.535914 78.361578 205.116591 
C 77.942255 204.697268 77.373451 204.461662 76.780439 204.461662 
C 76.187427 204.461662 75.618623 204.697268 75.1993 205.116591 
C 74.779977 205.535914 74.544371 206.104717 74.544371 206.69773 
C 74.544371 207.290742 74.779977 207.859546 75.1993 208.278868 
C 75.618623 208.698191 76.187427 208.933798 76.780439 208.933798 
z
" style="fill:#ea706a;stroke:#000000;stroke-width:0.357771;"/>
    <path clip-path="url(#pda0f26d360)" d="M 73.741078 215.501623 
C 74.33409 215.501623 74.902893 215.266017 75.322216 214.846694 
C 75.741539 214.427371 75.977146 213.858567 75.977146 213.265555 
C 75.977146 212.672543 75.741539 212.103739 75.322216 211.684416 
C 74.902893 211.265093 74.33409 211.029487 73.741078 211.029487 
C 73.148065 211.029487 72.579262 211.265093 72.159939 211.684416 
C 71.740616 212.103739 71.50501 212.672543 71.50501 213.265555 
C 71.50501 213.858567 71.740616 214.427371 72.159939 214.846694 
C 72.579262 215.266017 73.148065 215.501623 73.741078 215.501623 
z
" style="fill:#ea706a;stroke:#000000;stroke-width:0.357771;"/>
    <path clip-path="url(#pda0f26d360)" d="M 75.7928 225.743963 
C 76.385812 225.743963 76.954615 225.508356 77.373938 225.089033 
C 77.793261 224.669711 78.028868 224.100907 78.028868 223.507895 
C 78.028868 222.914882 77.793261 222.346079 77.373938 221.926756 
C 76.954615 221.507433 76.385812 221.271827 75.7928 221.271827 
C 75.199787 221.271827 74.630984 221.507433 74.211661 221.926756 
C 73.792338 222.346079 73.556732 222.914882 73.556732 223.507895 
C 73.556732 224.100907 73.792338 224.669711 74.211661 225.089033 
C 74.630984 225.508356 75.199787 225.743963 75.7928 225.743963 
z
" style="fill:#ea706a;stroke:#000000;stroke-width:0.357771;"/>
    <path clip-path="url(#pda0f26d360)" d="M 72.910228 195.143865 
C 73.50324 195.143865 74.072044 194.908259 74.491367 194.488936 
C 74.91069 194.069613 75.146296 193.500809 75.146296 192.907797 
C 75.146296 192.314785 74.91069 191.745981 74.491367 191.326658 
C 74.072044 190.907335 73.50324 190.671729 72.910228 190.671729 
C 72.317216 190.671729 71.748412 190.907335 71.329089 191.326658 
C 70.909767 191.745981 70.67416 192.314785 70.67416 192.907797 
C 70.67416 193.500809 70.909767 194.069613 71.329089 194.488936 
C 71.748412 194.908259 72.317216 195.143865 72.910228 195.143865 
z
" style="fill:#ea706a;stroke:#000000;stroke-width:0.357771;"/>
    <path clip-path="url(#pda0f26d360)" d="M 69.959 185.925506 
C 70.552012 185.925506 71.120816 185.6899 71.540139 185.270577 
C 71.959462 184.851254 72.195068 184.28245 72.195068 183.689438 
C 72.195068 183.096426 71.959462 182.527622 71.540139 182.108299 
C 71.120816 181.688976 70.552012 181.45337 69.959 181.45337 
C 69.365988 181.45337 68.797184 181.688976 68.377861 182.108299 
C 67.958538 182.527622 67.722932 183.096426 67.722932 183.689438 
C 67.722932 184.28245 67.958538 184.851254 68.377861 185.270577 
C 68.797184 185.6899 69.365988 185.925506 69.959 185.925506 
z
" style="fill:#ea706a;stroke:#000000;stroke-width:0.357771;"/>
    <path clip-path="url(#pda0f26d360)" d="M 90.901734 73.152607 
L 95.37387 75.388675 
L 95.37387 70.916539 
z
" style="fill:#3482f4;stroke:#000000;stroke-width:0.357771;"/>
    <path clip-path="url(#pda0f26d360)" d="M 86.622876 55.260794 
L 91.095012 57.496862 
L 91.095012 53.024726 
z
" style="fill:#3482f4;stroke:#000000;stroke-width:0.357771;"/>
    <path clip-path="url(#pda0f26d360)" d="M 77.372221 74.067489 
L 81.844357 76.303557 
L 81.844357 71.831421 
z
" style="fill:#3482f4;stroke:#000000;stroke-width:0.357771;"/>
    <path clip-path="url(#pda0f26d360)" d="M 93.001979 84.389593 
L 97.474115 86.625661 
L 97.474115 82.153525 
z
" style="fill:#3482f4;stroke:#000000;stroke-width:0.357771;"/>
    <path clip-path="url(#pda0f26d360)" d="M 81.102764 61.496528 
L 85.5749 63.732595 
L 85.5749 59.26046 
z
" style="fill:#3482f4;stroke:#000000;stroke-width:0.357771;"/>
    <path clip-path="url(#pda0f26d360)" d="M 87.110711 49.114847 
L 91.582847 51.350915 
L 91.582847 46.878779 
z
" style="fill:#3482f4;stroke:#000000;stroke-width:0.357771;"/>
    <path clip-path="url(#pda0f26d360)" d="M 95.653424 89.450766 
L 100.12556 91.686834 
L 100.12556 87.214698 
z
" style="fill:#3482f4;stroke:#000000;stroke-width:0.357771;"/>
    <path clip-path="url(#pda0f26d360)" d="M 90.63019 50.484144 
L 95.102326 52.720212 
L 95.102326 48.248076 
z
" style="fill:#3482f4;stroke:#000000;stroke-width:0.357771;"/>
    <path clip-path="url(#pda0f26d360)" d="M 100.707148 83.993193 
L 105.179284 86.229261 
L 105.179284 81.757125 
z
" style="fill:#3482f4;stroke:#000000;stroke-width:0.357771;"/>
    <path clip-path="url(#pda0f26d360)" d="M 96.507479 69.040243 
L 100.979615 71.276311 
L 100.979615 66.804175 
z
" style="fill:#3482f4;stroke:#000000;stroke-width:0.357771;"/>
    <path clip-path="url(#pda0f26d360)" d="M 192.164172 93.068162 
L 196.636308 95.30423 
L 196.636308 90.832094 
z
" style="fill:#ea706a;stroke:#000000;stroke-width:0.357771;"/>
    <path clip-path="url(#pda0f26d360)" d="M 248.577764 143.160066 
L 253.049899 145.396134 
L 253.049899 140.923998 
z
" style="fill:#ea706a;stroke:#000000;stroke-width:0.357771;"/>
    <path clip-path="url(#pda0f26d360)" d="M 204.801441 158.693685 
L 209.273577 160.929753 
L 209.273577 156.457617 
z
" style="fill:#ea706a;stroke:#000000;stroke-width:0.357771;"/>
    <path clip-path="url(#pda0f26d360)" d="M 206.686006 182.208956 
L 211.158142 184.445024 
L 211.158142 179.972888 
z
" style="fill:#ea706a;stroke:#000000;stroke-width:0.357771;"/>
    <path clip-path="url(#pda0f26d360)" d="M 197.850137 112.649077 
L 202.322272 114.885145 
L 202.322272 110.413009 
z
" style="fill:#ea706a;stroke:#000000;stroke-width:0.357771;"/>
    <path clip-path="url(#pda0f26d360)" d="M 191.974814 200.235512 
L 196.44695 202.47158 
L 196.44695 197.999444 
z
" style="fill:#ea706a;stroke:#000000;stroke-width:0.357771;"/>
    <path clip-path="url(#pda0f26d360)" d="M 221.707588 105.808232 
L 226.179723 108.0443 
L 226.179723 103.572164 
z
" style="fill:#ea706a;stroke:#000000;stroke-width:0.357771;"/>
    <path clip-path="url(#pda0f26d360)" d="M 182.606419 87.925244 
L 187.078555 90.161312 
L 187.078555 85.689176 
z
" style="fill:#ea706a;stroke:#000000;stroke-width:0.357771;"/>
    <path clip-path="url(#pda0f26d360)" d="M 228.965429 145.229899 
L 233.437565 147.465967 
L 233.437565 142.993831 
z
" style="fill:#ea706a;stroke:#000000;stroke-width:0.357771;"/>
    <path clip-path="url(#pda0f26d360)" d="M 193.657434 188.710963 
L 198.129569 190.947031 
L 198.129569 186.474895 
z
" style="fill:#ea706a;stroke:#000000;stroke-width:0.357771;"/>
    <path clip-path="url(#pda0f26d360)" d="M 86.636061 78.074193 
L 82.163925 75.838125 
L 82.163925 80.310261 
z
" style="fill:#3482f4;stroke:#000000;stroke-width:0.357771;"/>
    <path clip-path="url(#pda0f26d360)" d="M 85.671998 46.152153 
L 81.199862 43.916085 
L 81.199862 48.388221 
z
" style="fill:#3482f4;stroke:#000000;stroke-width:0.357771;"/>
    <path clip-path="url(#pda0f26d360)" d="M 76.518029 79.724182 
L 72.045893 77.488114 
L 72.045893 81.96025 
z
" style="fill:#3482f4;stroke:#000000;stroke-width:0.357771;"/>
    <path clip-path="url(#pda0f26d360)" d="M 89.263185 48.210917 
L 84.791049 45.974849 
L 84.791049 50.446985 
z
" style="fill:#3482f4;stroke:#000000;stroke-width:0.357771;"/>
    <path clip-path="url(#pda0f26d360)" d="M 86.176413 45.689111 
L 81.704278 43.453043 
L 81.704278 47.925179 
z
" style="fill:#3482f4;stroke:#000000;stroke-width:0.357771;"/>
    <path clip-path="url(#pda0f26d360)" d="M 87.122592 50.772642 
L 82.650456 48.536574 
L 82.650456 53.00871 
z
" style="fill:#3482f4;stroke:#000000;stroke-width:0.357771;"/>
    <path clip-path="url(#pda0f26d360)" d="M 88.040907 72.423865 
L 83.568771 70.187797 
L 83.568771 74.659933 
z
" style="fill:#3482f4;stroke:#000000;stroke-width:0.357771;"/>
    <path clip-path="url(#pda0f26d360)" d="M 89.10237 59.886923 
L 84.630234 57.650855 
L 84.630234 62.122991 
z
" style="fill:#3482f4;stroke:#000000;stroke-width:0.357771;"/>
    <path clip-path="url(#pda0f26d360)" d="M 94.865051 33.575173 
L 90.392915 31.339105 
L 90.392915 35.811241 
z
" style="fill:#3482f4;stroke:#000000;stroke-width:0.357771;"/>
    <path clip-path="url(#pda0f26d360)" d="M 233.555145 99.295983 
L 229.083009 97.059915 
L 229.083009 101.532051 
z
" style="fill:#ea706a;stroke:#000000;stroke-width:0.357771;"/>
    <path clip-path="url(#pda0f26d360)" d="M 265.750634 153.577114 
L 261.278498 151.341046 
L 261.278498 155.813182 
z
" style="fill:#ea706a;stroke:#000000;stroke-width:0.357771;"/>
    <path clip-path="url(#pda0f26d360)" d="M 261.968726 157.829039 
L 257.496591 155.592971 
L 257.496591 160.065107 
z
" style="fill:#ea706a;stroke:#000000;stroke-width:0.357771;"/>
    <path clip-path="url(#pda0f26d360)" d="M 260.435605 171.777239 
L 255.963469 169.541171 
L 255.963469 174.013307 
z
" style="fill:#ea706a;stroke:#000000;stroke-width:0.357771;"/>
    <path clip-path="url(#pda0f26d360)" d="M 245.430613 107.112076 
L 240.958477 104.876008 
L 240.958477 109.348144 
z
" style="fill:#ea706a;stroke:#000000;stroke-width:0.357771;"/>
    <path clip-path="url(#pda0f26d360)" d="M 240.274298 192.718996 
L 235.802162 190.482928 
L 235.802162 194.955064 
z
" style="fill:#ea706a;stroke:#000000;stroke-width:0.357771;"/>
    <path clip-path="url(#pda0f26d360)" d="M 251.245708 101.378189 
L 246.773572 99.142121 
L 246.773572 103.614257 
z
" style="fill:#ea706a;stroke:#000000;stroke-width:0.357771;"/>
    <path clip-path="url(#pda0f26d360)" d="M 226.884978 97.858008 
L 222.412842 95.62194 
L 222.412842 100.094076 
z
" style="fill:#ea706a;stroke:#000000;stroke-width:0.357771;"/>
    <path clip-path="url(#pda0f26d360)" d="M 267.678949 148.158025 
L 263.206813 145.921957 
L 263.206813 150.394093 
z
" style="fill:#ea706a;stroke:#000000;stroke-width:0.357771;"/>
    <path clip-path="url(#pda0f26d360)" d="M 240.432697 192.280718 
L 235.960561 190.04465 
L 235.960561 194.516786 
z
" style="fill:#ea706a;stroke:#000000;stroke-width:0.357771;"/>
    <path clip-path="url(#pda0f26d360)" d="M 89.725856 140.752546 
L 87.489788 145.224682 
L 91.961924 145.224682 
z
" style="fill:#3482f4;stroke:#000000;stroke-width:0.357771;"/>
    <path clip-path="url(#pda0f26d360)" d="M 83.200806 41.614412 
L 80.964738 46.086548 
L 85.436874 46.086548 
z
" style="fill:#3482f4;stroke:#000000;stroke-width:0.357771;"/>
    <path clip-path="url(#pda0f26d360)" d="M 88.004384 99.492112 
L 85.768316 103.964248 
L 90.240452 103.964248 
z
" style="fill:#3482f4;stroke:#000000;stroke-width:0.357771;"/>
    <path clip-path="url(#pda0f26d360)" d="M 91.688957 127.472481 
L 89.452889 131.944617 
L 93.925025 131.944617 
z
" style="fill:#3482f4;stroke:#000000;stroke-width:0.357771;"/>
    <path clip-path="url(#pda0f26d360)" d="M 87.191449 79.300088 
L 84.955381 83.772224 
L 89.427517 83.772224 
z
" style="fill:#3482f4;stroke:#000000;stroke-width:0.357771;"/>
    <path clip-path="url(#pda0f26d360)" d="M 81.38731 54.164403 
L 79.151242 58.636539 
L 83.623378 58.636539 
z
" style="fill:#3482f4;stroke:#000000;stroke-width:0.357771;"/>
    <path clip-path="url(#pda0f26d360)" d="M 81.847165 99.771412 
L 79.611097 104.243548 
L 84.083233 104.243548 
z
" style="fill:#3482f4;stroke:#000000;stroke-width:0.357771;"/>
    <path clip-path="url(#pda0f26d360)" d="M 73.435313 74.698028 
L 71.199245 79.170164 
L 75.671381 79.170164 
z
" style="fill:#3482f4;stroke:#000000;stroke-width:0.357771;"/>
    <path clip-path="url(#pda0f26d360)" d="M 213.22032 86.178645 
L 210.984252 90.650781 
L 215.456388 90.650781 
z
" style="fill:#ea706a;stroke:#000000;stroke-width:0.357771;"/>
    <path clip-path="url(#pda0f26d360)" d="M 266.795712 142.589361 
L 264.559644 147.061497 
L 269.03178 147.061497 
z
" style="fill:#ea706a;stroke:#000000;stroke-width:0.357771;"/>
    <path clip-path="url(#pda0f26d360)" d="M 261.353608 144.293546 
L 259.11754 148.765682 
L 263.589676 148.765682 
z
" style="fill:#ea706a;stroke:#000000;stroke-width:0.357771;"/>
    <path clip-path="url(#pda0f26d360)" d="M 260.739097 154.478191 
L 258.503029 158.950327 
L 262.975165 158.950327 
z
" style="fill:#ea706a;stroke:#000000;stroke-width:0.357771;"/>
    <path clip-path="url(#pda0f26d360)" d="M 239.817056 104.852389 
L 237.580988 109.324525 
L 242.053124 109.324525 
z
" style="fill:#ea706a;stroke:#000000;stroke-width:0.357771;"/>
    <path clip-path="url(#pda0f26d360)" d="M 217.481151 188.378608 
L 215.245083 192.850744 
L 219.717219 192.850744 
z
" style="fill:#ea706a;stroke:#000000;stroke-width:0.357771;"/>
    <path clip-path="url(#pda0f26d360)" d="M 249.518497 106.526331 
L 247.282429 110.998467 
L 251.754565 110.998467 
z
" style="fill:#ea706a;stroke:#000000;stroke-width:0.357771;"/>
    <path clip-path="url(#pda0f26d360)" d="M 224.215434 98.041097 
L 221.979366 102.513233 
L 226.451502 102.513233 
z
" style="fill:#ea706a;stroke:#000000;stroke-width:0.357771;"/>
    <path clip-path="url(#pda0f26d360)" d="M 260.814072 144.443848 
L 258.578004 148.915984 
L 263.05014 148.915984 
z
" style="fill:#ea706a;stroke:#000000;stroke-width:0.357771;"/>
    <path clip-path="url(#pda0f26d360)" d="M 216.920765 192.175308 
L 214.684697 196.647444 
L 219.156833 196.647444 
z
" style="fill:#ea706a;stroke:#000000;stroke-width:0.357771;"/>
    <path clip-path="url(#pda0f26d360)" d="M 68.745452 142.494423 
L 70.642818 139.332146 
L 68.745452 136.169868 
L 66.848085 139.332146 
z
" style="fill:#3482f4;stroke:#000000;stroke-width:0.357771;"/>
    <path clip-path="url(#pda0f26d360)" d="M 79.094912 160.786236 
L 80.992278 157.623958 
L 79.094912 154.461681 
L 77.197545 157.623958 
z
" style="fill:#3482f4;stroke:#000000;stroke-width:0.357771;"/>
    <path clip-path="url(#pda0f26d360)" d="M 120.390329 111.835774 
L 122.287696 108.673496 
L 120.390329 105.511218 
L 118.492963 108.673496 
z
" style="fill:#3482f4;stroke:#000000;stroke-width:0.357771;"/>
    <path clip-path="url(#pda0f26d360)" d="M 73.551884 196.242711 
L 75.44925 193.080433 
L 73.551884 189.918156 
L 71.654517 193.080433 
z
" style="fill:#3482f4;stroke:#000000;stroke-width:0.357771;"/>
    <path clip-path="url(#pda0f26d360)" d="M 81.308403 206.09032 
L 83.205769 202.928043 
L 81.308403 199.765765 
L 79.411036 202.928043 
z
" style="fill:#3482f4;stroke:#000000;stroke-width:0.357771;"/>
    <path clip-path="url(#pda0f26d360)" d="M 77.538009 195.773374 
L 79.435375 192.611096 
L 77.538009 189.448819 
L 75.640642 192.611096 
z
" style="fill:#3482f4;stroke:#000000;stroke-width:0.357771;"/>
    <path clip-path="url(#pda0f26d360)" d="M 68.024288 194.308428 
L 69.921655 191.14615 
L 68.024288 187.983873 
L 66.126922 191.14615 
z
" style="fill:#3482f4;stroke:#000000;stroke-width:0.357771;"/>
    <path clip-path="url(#pda0f26d360)" d="M 72.99102 194.209496 
L 74.888387 191.047218 
L 72.99102 187.884941 
L 71.093654 191.047218 
z
" style="fill:#3482f4;stroke:#000000;stroke-width:0.357771;"/>
    <path clip-path="url(#pda0f26d360)" d="M 86.399063 56.452549 
L 88.29643 53.290272 
L 86.399063 50.127994 
L 84.501697 53.290272 
z
" style="fill:#ea706a;stroke:#000000;stroke-width:0.357771;"/>
    <path clip-path="url(#pda0f26d360)" d="M 223.422829 111.156891 
L 225.320195 107.994614 
L 223.422829 104.832336 
L 221.525462 107.994614 
z
" style="fill:#ea706a;stroke:#000000;stroke-width:0.357771;"/>
    <path clip-path="url(#pda0f26d360)" d="M 192.376895 121.646875 
L 194.274261 118.484597 
L 192.376895 115.32232 
L 190.479528 118.484597 
z
" style="fill:#ea706a;stroke:#000000;stroke-width:0.357771;"/>
    <path clip-path="url(#pda0f26d360)" d="M 234.481355 127.881299 
L 236.378722 124.719022 
L 234.481355 121.556744 
L 232.583988 124.719022 
z
" style="fill:#ea706a;stroke:#000000;stroke-width:0.357771;"/>
    <path clip-path="url(#pda0f26d360)" d="M 130.809165 90.894628 
L 132.706531 87.73235 
L 130.809165 84.570073 
L 128.911798 87.73235 
z
" style="fill:#ea706a;stroke:#000000;stroke-width:0.357771;"/>
    <path clip-path="url(#pda0f26d360)" d="M 166.182095 71.001792 
L 168.079462 67.839514 
L 166.182095 64.677237 
L 164.284729 67.839514 
z
" style="fill:#ea706a;stroke:#000000;stroke-width:0.357771;"/>
    <path clip-path="url(#pda0f26d360)" d="M 216.255684 94.963512 
L 218.153051 91.801234 
L 216.255684 88.638956 
L 214.358318 91.801234 
z
" style="fill:#ea706a;stroke:#000000;stroke-width:0.357771;"/>
    <path clip-path="url(#pda0f26d360)" d="M 133.161516 46.136562 
L 135.058883 42.974284 
L 133.161516 39.812006 
L 131.26415 42.974284 
z
" style="fill:#ea706a;stroke:#000000;stroke-width:0.357771;"/>
    <path clip-path="url(#pda0f26d360)" d="M 226.226826 126.785688 
L 228.124193 123.62341 
L 226.226826 120.461132 
L 224.32946 123.62341 
z
" style="fill:#ea706a;stroke:#000000;stroke-width:0.357771;"/>
    <path clip-path="url(#pda0f26d360)" d="M 195.833624 147.174672 
L 197.73099 144.012395 
L 195.833624 140.850117 
L 193.936257 144.012395 
z
" style="fill:#ea706a;stroke:#000000;stroke-width:0.357771;"/>
    <path clip-path="url(#pda0f26d360)" d="M 69.668892 220.969729 
L 74.141028 220.969729 
L 74.141028 216.497593 
L 69.668892 216.497593 
z
" style="fill:#3482f4;stroke:#000000;stroke-width:0.357771;"/>
    <path clip-path="url(#pda0f26d360)" d="M 81.589956 194.01656 
L 86.062092 194.01656 
L 86.062092 189.544424 
L 81.589956 189.544424 
z
" style="fill:#3482f4;stroke:#000000;stroke-width:0.357771;"/>
    <path clip-path="url(#pda0f26d360)" d="M 69.230362 177.480501 
L 73.702498 177.480501 
L 73.702498 173.008365 
L 69.230362 173.008365 
z
" style="fill:#3482f4;stroke:#000000;stroke-width:0.357771;"/>
    <path clip-path="url(#pda0f26d360)" d="M 73.492769 231.95387 
L 77.964905 231.95387 
L 77.964905 227.481734 
L 73.492769 227.481734 
z
" style="fill:#3482f4;stroke:#000000;stroke-width:0.357771;"/>
    <path clip-path="url(#pda0f26d360)" d="M 68.727312 212.249482 
L 73.199448 212.249482 
L 73.199448 207.777346 
L 68.727312 207.777346 
z
" style="fill:#3482f4;stroke:#000000;stroke-width:0.357771;"/>
    <path clip-path="url(#pda0f26d360)" d="M 71.222963 219.019584 
L 75.695099 219.019584 
L 75.695099 214.547448 
L 71.222963 214.547448 
z
" style="fill:#3482f4;stroke:#000000;stroke-width:0.357771;"/>
    <path clip-path="url(#pda0f26d360)" d="M 74.444912 209.943765 
L 78.917048 209.943765 
L 78.917048 205.471629 
L 74.444912 205.471629 
z
" style="fill:#3482f4;stroke:#000000;stroke-width:0.357771;"/>
    <path clip-path="url(#pda0f26d360)" d="M 70.705945 216.392352 
L 75.178081 216.392352 
L 75.178081 211.920216 
L 70.705945 211.920216 
z
" style="fill:#3482f4;stroke:#000000;stroke-width:0.357771;"/>
    <path clip-path="url(#pda0f26d360)" d="M 72.610444 94.805042 
L 77.08258 94.805042 
L 77.08258 90.332906 
L 72.610444 90.332906 
z
" style="fill:#ea706a;stroke:#000000;stroke-width:0.357771;"/>
    <path clip-path="url(#pda0f26d360)" d="M 82.503311 64.45149 
L 86.975447 64.45149 
L 86.975447 59.979354 
L 82.503311 59.979354 
z
" style="fill:#ea706a;stroke:#000000;stroke-width:0.357771;"/>
    <path clip-path="url(#pda0f26d360)" d="M 85.041325 58.371753 
L 89.513461 58.371753 
L 89.513461 53.899617 
L 85.041325 53.899617 
z
" style="fill:#ea706a;stroke:#000000;stroke-width:0.357771;"/>
    <path clip-path="url(#pda0f26d360)" d="M 97.051555 58.245352 
L 101.52369 58.245352 
L 101.52369 53.773216 
L 97.051555 53.773216 
z
" style="fill:#ea706a;stroke:#000000;stroke-width:0.357771;"/>
    <path clip-path="url(#pda0f26d360)" d="M 86.792529 47.653163 
L 91.264665 47.653163 
L 91.264665 43.181027 
L 86.792529 43.181027 
z
" style="fill:#ea706a;stroke:#000000;stroke-width:0.357771;"/>
    <path clip-path="url(#pda0f26d360)" d="M 101.288384 76.428157 
L 105.76052 76.428157 
L 105.76052 71.956021 
L 101.288384 71.956021 
z
" style="fill:#ea706a;stroke:#000000;stroke-width:0.357771;"/>
    <path clip-path="url(#pda0f26d360)" d="M 101.395571 52.786812 
L 105.867707 52.786812 
L 105.867707 48.314676 
L 101.395571 48.314676 
z
" style="fill:#ea706a;stroke:#000000;stroke-width:0.357771;"/>
    <path clip-path="url(#pda0f26d360)" d="M 86.444156 66.186449 
L 90.916291 66.186449 
L 90.916291 61.714313 
L 86.444156 61.714313 
z
" style="fill:#ea706a;stroke:#000000;stroke-width:0.357771;"/>
    <path clip-path="url(#pda0f26d360)" d="M 132.864124 90.06135 
L 137.336259 90.06135 
L 137.336259 85.589214 
L 132.864124 85.589214 
z
" style="fill:#ea706a;stroke:#000000;stroke-width:0.357771;"/>
    <path clip-path="url(#pda0f26d360)" d="M 104.875021 69.286376 
L 109.347157 69.286376 
L 109.347157 64.81424 
L 104.875021 64.81424 
z
" style="fill:#ea706a;stroke:#000000;stroke-width:0.357771;"/>
    <path clip-path="url(#pda0f26d360)" d="M 81.376651 225.898322 
L 79.250024 227.443407 
L 80.062323 229.943407 
L 82.690978 229.943407 
L 83.503278 227.443407 
z
" style="fill:#3482f4;stroke:#000000;stroke-width:0.357771;"/>
    <path clip-path="url(#pda0f26d360)" d="M 75.358585 217.266993 
L 73.231958 218.812078 
L 74.044257 221.312078 
L 76.672913 221.312078 
L 77.485212 218.812078 
z
" style="fill:#3482f4;stroke:#000000;stroke-width:0.357771;"/>
    <path clip-path="url(#pda0f26d360)" d="M 80.955555 217.590231 
L 78.828928 219.135316 
L 79.641227 221.635316 
L 82.269883 221.635316 
L 83.082182 219.135316 
z
" style="fill:#3482f4;stroke:#000000;stroke-width:0.357771;"/>
    <path clip-path="url(#pda0f26d360)" d="M 72.608045 218.22498 
L 70.481418 219.770065 
L 71.293717 222.270065 
L 73.922372 222.270065 
L 74.734672 219.770065 
z
" style="fill:#3482f4;stroke:#000000;stroke-width:0.357771;"/>
    <path clip-path="url(#pda0f26d360)" d="M 92.380697 231.400608 
L 90.25407 232.945693 
L 91.066369 235.445693 
L 93.695025 235.445693 
L 94.507324 232.945693 
z
" style="fill:#3482f4;stroke:#000000;stroke-width:0.357771;"/>
    <path clip-path="url(#pda0f26d360)" d="M 79.172847 206.973391 
L 77.04622 208.518476 
L 77.858519 211.018476 
L 80.487175 211.018476 
L 81.299474 208.518476 
z
" style="fill:#3482f4;stroke:#000000;stroke-width:0.357771;"/>
    <path clip-path="url(#pda0f26d360)" d="M 78.424132 215.708549 
L 76.297505 217.253634 
L 77.109804 219.753634 
L 79.73846 219.753634 
L 80.550759 217.253634 
z
" style="fill:#3482f4;stroke:#000000;stroke-width:0.357771;"/>
    <path clip-path="url(#pda0f26d360)" d="M 80.464776 208.48719 
L 78.338149 210.032275 
L 79.150448 212.532275 
L 81.779103 212.532275 
L 82.591403 210.032275 
z
" style="fill:#3482f4;stroke:#000000;stroke-width:0.357771;"/>
    <path clip-path="url(#pda0f26d360)" d="M 68.500434 107.528941 
L 66.373807 109.074026 
L 67.186106 111.574026 
L 69.814761 111.574026 
L 70.627061 109.074026 
z
" style="fill:#ea706a;stroke:#000000;stroke-width:0.357771;"/>
    <path clip-path="url(#pda0f26d360)" d="M 72.070378 103.703565 
L 69.943751 105.24865 
L 70.75605 107.74865 
L 73.384705 107.74865 
L 74.197005 105.24865 
z
" style="fill:#ea706a;stroke:#000000;stroke-width:0.357771;"/>
    <path clip-path="url(#pda0f26d360)" d="M 73.592349 84.918217 
L 71.465722 86.463302 
L 72.278021 88.963302 
L 74.906677 88.963302 
L 75.718976 86.463302 
z
" style="fill:#ea706a;stroke:#000000;stroke-width:0.357771;"/>
    <path clip-path="url(#pda0f26d360)" d="M 81.896409 79.042147 
L 79.769782 80.587232 
L 80.582081 83.087232 
L 83.210736 83.087232 
L 84.023036 80.587232 
z
" style="fill:#ea706a;stroke:#000000;stroke-width:0.357771;"/>
    <path clip-path="url(#pda0f26d360)" d="M 78.702758 82.769981 
L 76.576131 84.315066 
L 77.38843 86.815066 
L 80.017085 86.815066 
L 80.829385 84.315066 
z
" style="fill:#ea706a;stroke:#000000;stroke-width:0.357771;"/>
    <path clip-path="url(#pda0f26d360)" d="M 89.739409 76.20794 
L 87.612782 77.753025 
L 88.425081 80.253025 
L 91.053737 80.253025 
L 91.866036 77.753025 
z
" style="fill:#ea706a;stroke:#000000;stroke-width:0.357771;"/>
    <path clip-path="url(#pda0f26d360)" d="M 90.383571 52.413959 
L 88.256944 53.959044 
L 89.069243 56.459044 
L 91.697898 56.459044 
L 92.510198 53.959044 
z
" style="fill:#ea706a;stroke:#000000;stroke-width:0.357771;"/>
    <path clip-path="url(#pda0f26d360)" d="M 78.415738 107.745829 
L 76.289111 109.290914 
L 77.10141 111.790914 
L 79.730066 111.790914 
L 80.542365 109.290914 
z
" style="fill:#ea706a;stroke:#000000;stroke-width:0.357771;"/>
    <path clip-path="url(#pda0f26d360)" d="M 85.871072 94.707751 
L 83.744445 96.252836 
L 84.556744 98.752836 
L 87.185399 98.752836 
L 87.997699 96.252836 
z
" style="fill:#ea706a;stroke:#000000;stroke-width:0.357771;"/>
    <path clip-path="url(#pda0f26d360)" d="M 83.54964 79.200368 
L 81.423013 80.745453 
L 82.235312 83.245453 
L 84.863968 83.245453 
L 85.676267 80.745453 
z
" style="fill:#ea706a;stroke:#000000;stroke-width:0.357771;"/>
    <path clip-path="url(#pda0f26d360)" d="M 174.488204 92.407883 
L 173.986175 93.952968 
L 172.361577 93.952968 
L 173.675905 94.907883 
L 173.173876 96.452968 
L 174.488204 95.498053 
L 175.802532 96.452968 
L 175.300503 94.907883 
L 176.614831 93.952968 
L 174.990232 93.952968 
z
" style="fill:#3482f4;stroke:#000000;stroke-width:0.357771;"/>
    <path clip-path="url(#pda0f26d360)" d="M 242.898307 154.919401 
L 242.396279 156.464486 
L 240.77168 156.464486 
L 242.086008 157.419401 
L 241.58398 158.964486 
L 242.898307 158.009571 
L 244.212635 158.964486 
L 243.710607 157.419401 
L 245.024934 156.464486 
L 243.400336 156.464486 
z
" style="fill:#3482f4;stroke:#000000;stroke-width:0.357771;"/>
    <path clip-path="url(#pda0f26d360)" d="M 251.14875 123.815556 
L 250.646721 125.360641 
L 249.022123 125.360641 
L 250.336451 126.315556 
L 249.834422 127.860641 
L 251.14875 126.905726 
L 252.463078 127.860641 
L 251.961049 126.315556 
L 253.275377 125.360641 
L 251.650779 125.360641 
z
" style="fill:#3482f4;stroke:#000000;stroke-width:0.357771;"/>
    <path clip-path="url(#pda0f26d360)" d="M 105.53399 49.140938 
L 105.031961 50.686023 
L 103.407363 50.686023 
L 104.72169 51.640938 
L 104.219662 53.186023 
L 105.53399 52.231108 
L 106.848317 53.186023 
L 106.346289 51.640938 
L 107.660617 50.686023 
L 106.036018 50.686023 
z
" style="fill:#3482f4;stroke:#000000;stroke-width:0.357771;"/>
    <path clip-path="url(#pda0f26d360)" d="M 95.259147 93.515544 
L 94.757118 95.060629 
L 93.13252 95.060629 
L 94.446848 96.015544 
L 93.944819 97.560629 
L 95.259147 96.605714 
L 96.573475 97.560629 
L 96.071446 96.015544 
L 97.385774 95.060629 
L 95.761175 95.060629 
z
" style="fill:#3482f4;stroke:#000000;stroke-width:0.357771;"/>
    <path clip-path="url(#pda0f26d360)" d="M 169.267436 66.607101 
L 168.765408 68.152186 
L 167.140809 68.152186 
L 168.455137 69.107101 
L 167.953109 70.652186 
L 169.267436 69.697271 
L 170.581764 70.652186 
L 170.079736 69.107101 
L 171.394063 68.152186 
L 169.769465 68.152186 
z
" style="fill:#3482f4;stroke:#000000;stroke-width:0.357771;"/>
    <path clip-path="url(#pda0f26d360)" d="M 226.930297 133.120385 
L 226.428269 134.66547 
L 224.80367 134.66547 
L 226.117998 135.620385 
L 225.61597 137.16547 
L 226.930297 136.210555 
L 228.244625 137.16547 
L 227.742597 135.620385 
L 229.056924 134.66547 
L 227.432326 134.66547 
z
" style="fill:#3482f4;stroke:#000000;stroke-width:0.357771;"/>
    <path clip-path="url(#pda0f26d360)" d="M 182.078536 209.709236 
L 181.576508 211.254321 
L 179.951909 211.254321 
L 181.266237 212.209236 
L 180.764209 213.754321 
L 182.078536 212.799406 
L 183.392864 213.754321 
L 182.890836 212.209236 
L 184.205163 211.254321 
L 182.580565 211.254321 
z
" style="fill:#3482f4;stroke:#000000;stroke-width:0.357771;"/>
    <path clip-path="url(#pda0f26d360)" d="M 96.946925 34.441247 
L 96.444896 35.986332 
L 94.820297 35.986332 
L 96.134625 36.941247 
L 95.632597 38.486332 
L 96.946925 37.531417 
L 98.261252 38.486332 
L 97.759224 36.941247 
L 99.073552 35.986332 
L 97.448953 35.986332 
z
" style="fill:#ea706a;stroke:#000000;stroke-width:0.357771;"/>
    <path clip-path="url(#pda0f26d360)" d="M 89.445605 33.698728 
L 88.943577 35.243813 
L 87.318978 35.243813 
L 88.633306 36.198728 
L 88.131277 37.743813 
L 89.445605 36.788898 
L 90.759933 37.743813 
L 90.257904 36.198728 
L 91.572232 35.243813 
L 89.947634 35.243813 
z
" style="fill:#ea706a;stroke:#000000;stroke-width:0.357771;"/>
    <path clip-path="url(#pda0f26d360)" d="M 93.278787 27.949634 
L 92.776759 29.494719 
L 91.15216 29.494719 
L 92.466488 30.449634 
L 91.96446 31.994719 
L 93.278787 31.039804 
L 94.593115 31.994719 
L 94.091087 30.449634 
L 95.405414 29.494719 
L 93.780816 29.494719 
z
" style="fill:#ea706a;stroke:#000000;stroke-width:0.357771;"/>
    <path clip-path="url(#pda0f26d360)" d="M 120.655415 31.591775 
L 120.153387 33.13686 
L 118.528788 33.13686 
L 119.843116 34.091775 
L 119.341087 35.63686 
L 120.655415 34.681945 
L 121.969743 35.63686 
L 121.467714 34.091775 
L 122.782042 33.13686 
L 121.157444 33.13686 
z
" style="fill:#ea706a;stroke:#000000;stroke-width:0.357771;"/>
    <path clip-path="url(#pda0f26d360)" d="M 99.909453 19.887256 
L 99.407424 21.432341 
L 97.782826 21.432341 
L 99.097153 22.387256 
L 98.595125 23.932341 
L 99.909453 22.977426 
L 101.22378 23.932341 
L 100.721752 22.387256 
L 102.03608 21.432341 
L 100.411481 21.432341 
z
" style="fill:#ea706a;stroke:#000000;stroke-width:0.357771;"/>
    <path clip-path="url(#pda0f26d360)" d="M 98.077827 24.74566 
L 97.575799 26.290745 
L 95.9512 26.290745 
L 97.265528 27.24566 
L 96.763499 28.790745 
L 98.077827 27.83583 
L 99.392155 28.790745 
L 98.890126 27.24566 
L 100.204454 26.290745 
L 98.579856 26.290745 
z
" style="fill:#ea706a;stroke:#000000;stroke-width:0.357771;"/>
    <path clip-path="url(#pda0f26d360)" d="M 128.530617 23.466534 
L 128.028589 25.011619 
L 126.40399 25.011619 
L 127.718318 25.966534 
L 127.216289 27.511619 
L 128.530617 26.556704 
L 129.844945 27.511619 
L 129.342916 25.966534 
L 130.657244 25.011619 
L 129.032646 25.011619 
z
" style="fill:#ea706a;stroke:#000000;stroke-width:0.357771;"/>
    <path clip-path="url(#pda0f26d360)" d="M 91.095258 51.951981 
L 90.59323 53.497066 
L 88.968631 53.497066 
L 90.282959 54.451981 
L 89.78093 55.997066 
L 91.095258 55.042151 
L 92.409586 55.997066 
L 91.907557 54.451981 
L 93.221885 53.497066 
L 91.597287 53.497066 
z
" style="fill:#ea706a;stroke:#000000;stroke-width:0.357771;"/>
    <path clip-path="url(#pda0f26d360)" d="M 106.943707 28.715251 
L 106.441679 30.260336 
L 104.81708 30.260336 
L 106.131408 31.215251 
L 105.62938 32.760336 
L 106.943707 31.805421 
L 108.258035 32.760336 
L 107.756007 31.215251 
L 109.070334 30.260336 
L 107.445736 30.260336 
z
" style="fill:#ea706a;stroke:#000000;stroke-width:0.357771;"/>
    <path clip-path="url(#pda0f26d360)" d="M 102.621642 32.409281 
L 102.119614 33.954366 
L 100.495015 33.954366 
L 101.809343 34.909281 
L 101.307314 36.454366 
L 102.621642 35.499451 
L 103.93597 36.454366 
L 103.433941 34.909281 
L 104.748269 33.954366 
L 103.123671 33.954366 
z
" style="fill:#ea706a;stroke:#000000;stroke-width:0.357771;"/>
   </g>
   <g id="PathCollection_2"/>
   <g id="PathCollection_3"/>
   <g id="PathCollection_4"/>
   <g id="PathCollection_5"/>
   <g id="PathCollection_6"/>
   <g id="PathCollection_7"/>
   <g id="PathCollection_8"/>
   <g id="PathCollection_9"/>
   <g id="PathCollection_10"/>
   <g id="PathCollection_11"/>
   <g id="matplotlib.axis_1">
    <g id="xtick_1">
     <g id="line2d_1">
      <defs>
       <path d="M 0 0 
L 0 3.5 
" id="md1bc5bfe7f" style="stroke:#000000;stroke-width:0.8;"/>
      </defs>
      <g>
       <use style="stroke:#000000;stroke-width:0.8;" x="83.140291" xlink:href="#md1bc5bfe7f" y="244.96"/>
      </g>
     </g>
     <g id="text_1">
      <!-- −0.2 -->
      <defs>
       <path d="M 10.59375 35.5 
L 73.1875 35.5 
L 73.1875 27.203125 
L 10.59375 27.203125 
z
" id="DejaVuSans-8722"/>
       <path d="M 31.78125 66.40625 
Q 24.171875 66.40625 20.328125 58.90625 
Q 16.5 51.421875 16.5 36.375 
Q 16.5 21.390625 20.328125 13.890625 
Q 24.171875 6.390625 31.78125 6.390625 
Q 39.453125 6.390625 43.28125 13.890625 
Q 47.125 21.390625 47.125 36.375 
Q 47.125 51.421875 43.28125 58.90625 
Q 39.453125 66.40625 31.78125 66.40625 
z
M 31.78125 74.21875 
Q 44.046875 74.21875 50.515625 64.515625 
Q 56.984375 54.828125 56.984375 36.375 
Q 56.984375 17.96875 50.515625 8.265625 
Q 44.046875 -1.421875 31.78125 -1.421875 
Q 19.53125 -1.421875 13.0625 8.265625 
Q 6.59375 17.96875 6.59375 36.375 
Q 6.59375 54.828125 13.0625 64.515625 
Q 19.53125 74.21875 31.78125 74.21875 
z
" id="DejaVuSans-48"/>
       <path d="M 10.6875 12.40625 
L 21 12.40625 
L 21 0 
L 10.6875 0 
z
" id="DejaVuSans-46"/>
       <path d="M 19.1875 8.296875 
L 53.609375 8.296875 
L 53.609375 0 
L 7.328125 0 
L 7.328125 8.296875 
Q 12.9375 14.109375 22.625 23.890625 
Q 32.328125 33.6875 34.8125 36.53125 
Q 39.546875 41.84375 41.421875 45.53125 
Q 43.3125 49.21875 43.3125 52.78125 
Q 43.3125 58.59375 39.234375 62.25 
Q 35.15625 65.921875 28.609375 65.921875 
Q 23.96875 65.921875 18.8125 64.3125 
Q 13.671875 62.703125 7.8125 59.421875 
L 7.8125 69.390625 
Q 13.765625 71.78125 18.9375 73 
Q 24.125 74.21875 28.421875 74.21875 
Q 39.75 74.21875 46.484375 68.546875 
Q 53.21875 62.890625 53.21875 53.421875 
Q 53.21875 48.921875 51.53125 44.890625 
Q 49.859375 40.875 45.40625 35.40625 
Q 44.1875 33.984375 37.640625 27.21875 
Q 31.109375 20.453125 19.1875 8.296875 
z
" id="DejaVuSans-50"/>
      </defs>
      <g transform="translate(70.998885 259.558438)scale(0.1 -0.1)">
       <use xlink:href="#DejaVuSans-8722"/>
       <use x="83.789062" xlink:href="#DejaVuSans-48"/>
       <use x="147.412109" xlink:href="#DejaVuSans-46"/>
       <use x="179.199219" xlink:href="#DejaVuSans-50"/>
      </g>
     </g>
    </g>
    <g id="xtick_2">
     <g id="line2d_2">
      <g>
       <use style="stroke:#000000;stroke-width:0.8;" x="125.828074" xlink:href="#md1bc5bfe7f" y="244.96"/>
      </g>
     </g>
     <g id="text_2">
      <!-- 0.0 -->
      <g transform="translate(117.876511 259.558438)scale(0.1 -0.1)">
       <use xlink:href="#DejaVuSans-48"/>
       <use x="63.623047" xlink:href="#DejaVuSans-46"/>
       <use x="95.410156" xlink:href="#DejaVuSans-48"/>
      </g>
     </g>
    </g>
    <g id="xtick_3">
     <g id="line2d_3">
      <g>
       <use style="stroke:#000000;stroke-width:0.8;" x="168.515857" xlink:href="#md1bc5bfe7f" y="244.96"/>
      </g>
     </g>
     <g id="text_3">
      <!-- 0.2 -->
      <g transform="translate(160.564294 259.558438)scale(0.1 -0.1)">
       <use xlink:href="#DejaVuSans-48"/>
       <use x="63.623047" xlink:href="#DejaVuSans-46"/>
       <use x="95.410156" xlink:href="#DejaVuSans-50"/>
      </g>
     </g>
    </g>
    <g id="xtick_4">
     <g id="line2d_4">
      <g>
       <use style="stroke:#000000;stroke-width:0.8;" x="211.203639" xlink:href="#md1bc5bfe7f" y="244.96"/>
      </g>
     </g>
     <g id="text_4">
      <!-- 0.4 -->
      <defs>
       <path d="M 37.796875 64.3125 
L 12.890625 25.390625 
L 37.796875 25.390625 
z
M 35.203125 72.90625 
L 47.609375 72.90625 
L 47.609375 25.390625 
L 58.015625 25.390625 
L 58.015625 17.1875 
L 47.609375 17.1875 
L 47.609375 0 
L 37.796875 0 
L 37.796875 17.1875 
L 4.890625 17.1875 
L 4.890625 26.703125 
z
" id="DejaVuSans-52"/>
      </defs>
      <g transform="translate(203.252077 259.558438)scale(0.1 -0.1)">
       <use xlink:href="#DejaVuSans-48"/>
       <use x="63.623047" xlink:href="#DejaVuSans-46"/>
       <use x="95.410156" xlink:href="#DejaVuSans-52"/>
      </g>
     </g>
    </g>
    <g id="xtick_5">
     <g id="line2d_5">
      <g>
       <use style="stroke:#000000;stroke-width:0.8;" x="253.891422" xlink:href="#md1bc5bfe7f" y="244.96"/>
      </g>
     </g>
     <g id="text_5">
      <!-- 0.6 -->
      <defs>
       <path d="M 33.015625 40.375 
Q 26.375 40.375 22.484375 35.828125 
Q 18.609375 31.296875 18.609375 23.390625 
Q 18.609375 15.53125 22.484375 10.953125 
Q 26.375 6.390625 33.015625 6.390625 
Q 39.65625 6.390625 43.53125 10.953125 
Q 47.40625 15.53125 47.40625 23.390625 
Q 47.40625 31.296875 43.53125 35.828125 
Q 39.65625 40.375 33.015625 40.375 
z
M 52.59375 71.296875 
L 52.59375 62.3125 
Q 48.875 64.0625 45.09375 64.984375 
Q 41.3125 65.921875 37.59375 65.921875 
Q 27.828125 65.921875 22.671875 59.328125 
Q 17.53125 52.734375 16.796875 39.40625 
Q 19.671875 43.65625 24.015625 45.921875 
Q 28.375 48.1875 33.59375 48.1875 
Q 44.578125 48.1875 50.953125 41.515625 
Q 57.328125 34.859375 57.328125 23.390625 
Q 57.328125 12.15625 50.6875 5.359375 
Q 44.046875 -1.421875 33.015625 -1.421875 
Q 20.359375 -1.421875 13.671875 8.265625 
Q 6.984375 17.96875 6.984375 36.375 
Q 6.984375 53.65625 15.1875 63.9375 
Q 23.390625 74.21875 37.203125 74.21875 
Q 40.921875 74.21875 44.703125 73.484375 
Q 48.484375 72.75 52.59375 71.296875 
z
" id="DejaVuSans-54"/>
      </defs>
      <g transform="translate(245.93986 259.558438)scale(0.1 -0.1)">
       <use xlink:href="#DejaVuSans-48"/>
       <use x="63.623047" xlink:href="#DejaVuSans-46"/>
       <use x="95.410156" xlink:href="#DejaVuSans-54"/>
      </g>
     </g>
    </g>
    <g id="text_6">
     <!-- Axis 1 (35.69%) -->
     <defs>
      <path d="M 34.1875 63.1875 
L 20.796875 26.90625 
L 47.609375 26.90625 
z
M 28.609375 72.90625 
L 39.796875 72.90625 
L 67.578125 0 
L 57.328125 0 
L 50.6875 18.703125 
L 17.828125 18.703125 
L 11.1875 0 
L 0.78125 0 
z
" id="DejaVuSans-65"/>
      <path d="M 54.890625 54.6875 
L 35.109375 28.078125 
L 55.90625 0 
L 45.3125 0 
L 29.390625 21.484375 
L 13.484375 0 
L 2.875 0 
L 24.125 28.609375 
L 4.6875 54.6875 
L 15.28125 54.6875 
L 29.78125 35.203125 
L 44.28125 54.6875 
z
" id="DejaVuSans-120"/>
      <path d="M 9.421875 54.6875 
L 18.40625 54.6875 
L 18.40625 0 
L 9.421875 0 
z
M 9.421875 75.984375 
L 18.40625 75.984375 
L 18.40625 64.59375 
L 9.421875 64.59375 
z
" id="DejaVuSans-105"/>
      <path d="M 44.28125 53.078125 
L 44.28125 44.578125 
Q 40.484375 46.53125 36.375 47.5 
Q 32.28125 48.484375 27.875 48.484375 
Q 21.1875 48.484375 17.84375 46.4375 
Q 14.5 44.390625 14.5 40.28125 
Q 14.5 37.15625 16.890625 35.375 
Q 19.28125 33.59375 26.515625 31.984375 
L 29.59375 31.296875 
Q 39.15625 29.25 43.1875 25.515625 
Q 47.21875 21.78125 47.21875 15.09375 
Q 47.21875 7.46875 41.1875 3.015625 
Q 35.15625 -1.421875 24.609375 -1.421875 
Q 20.21875 -1.421875 15.453125 -0.5625 
Q 10.6875 0.296875 5.421875 2 
L 5.421875 11.28125 
Q 10.40625 8.6875 15.234375 7.390625 
Q 20.0625 6.109375 24.8125 6.109375 
Q 31.15625 6.109375 34.5625 8.28125 
Q 37.984375 10.453125 37.984375 14.40625 
Q 37.984375 18.0625 35.515625 20.015625 
Q 33.0625 21.96875 24.703125 23.78125 
L 21.578125 24.515625 
Q 13.234375 26.265625 9.515625 29.90625 
Q 5.8125 33.546875 5.8125 39.890625 
Q 5.8125 47.609375 11.28125 51.796875 
Q 16.75 56 26.8125 56 
Q 31.78125 56 36.171875 55.265625 
Q 40.578125 54.546875 44.28125 53.078125 
z
" id="DejaVuSans-115"/>
      <path id="DejaVuSans-32"/>
      <path d="M 12.40625 8.296875 
L 28.515625 8.296875 
L 28.515625 63.921875 
L 10.984375 60.40625 
L 10.984375 69.390625 
L 28.421875 72.90625 
L 38.28125 72.90625 
L 38.28125 8.296875 
L 54.390625 8.296875 
L 54.390625 0 
L 12.40625 0 
z
" id="DejaVuSans-49"/>
      <path d="M 31 75.875 
Q 24.46875 64.65625 21.28125 53.65625 
Q 18.109375 42.671875 18.109375 31.390625 
Q 18.109375 20.125 21.3125 9.0625 
Q 24.515625 -2 31 -13.1875 
L 23.1875 -13.1875 
Q 15.875 -1.703125 12.234375 9.375 
Q 8.59375 20.453125 8.59375 31.390625 
Q 8.59375 42.28125 12.203125 53.3125 
Q 15.828125 64.359375 23.1875 75.875 
z
" id="DejaVuSans-40"/>
      <path d="M 40.578125 39.3125 
Q 47.65625 37.796875 51.625 33 
Q 55.609375 28.21875 55.609375 21.1875 
Q 55.609375 10.40625 48.1875 4.484375 
Q 40.765625 -1.421875 27.09375 -1.421875 
Q 22.515625 -1.421875 17.65625 -0.515625 
Q 12.796875 0.390625 7.625 2.203125 
L 7.625 11.71875 
Q 11.71875 9.328125 16.59375 8.109375 
Q 21.484375 6.890625 26.8125 6.890625 
Q 36.078125 6.890625 40.9375 10.546875 
Q 45.796875 14.203125 45.796875 21.1875 
Q 45.796875 27.640625 41.28125 31.265625 
Q 36.765625 34.90625 28.71875 34.90625 
L 20.21875 34.90625 
L 20.21875 43.015625 
L 29.109375 43.015625 
Q 36.375 43.015625 40.234375 45.921875 
Q 44.09375 48.828125 44.09375 54.296875 
Q 44.09375 59.90625 40.109375 62.90625 
Q 36.140625 65.921875 28.71875 65.921875 
Q 24.65625 65.921875 20.015625 65.03125 
Q 15.375 64.15625 9.8125 62.3125 
L 9.8125 71.09375 
Q 15.4375 72.65625 20.34375 73.4375 
Q 25.25 74.21875 29.59375 74.21875 
Q 40.828125 74.21875 47.359375 69.109375 
Q 53.90625 64.015625 53.90625 55.328125 
Q 53.90625 49.265625 50.4375 45.09375 
Q 46.96875 40.921875 40.578125 39.3125 
z
" id="DejaVuSans-51"/>
      <path d="M 10.796875 72.90625 
L 49.515625 72.90625 
L 49.515625 64.59375 
L 19.828125 64.59375 
L 19.828125 46.734375 
Q 21.96875 47.46875 24.109375 47.828125 
Q 26.265625 48.1875 28.421875 48.1875 
Q 40.625 48.1875 47.75 41.5 
Q 54.890625 34.8125 54.890625 23.390625 
Q 54.890625 11.625 47.5625 5.09375 
Q 40.234375 -1.421875 26.90625 -1.421875 
Q 22.3125 -1.421875 17.546875 -0.640625 
Q 12.796875 0.140625 7.71875 1.703125 
L 7.71875 11.625 
Q 12.109375 9.234375 16.796875 8.0625 
Q 21.484375 6.890625 26.703125 6.890625 
Q 35.15625 6.890625 40.078125 11.328125 
Q 45.015625 15.765625 45.015625 23.390625 
Q 45.015625 31 40.078125 35.4375 
Q 35.15625 39.890625 26.703125 39.890625 
Q 22.75 39.890625 18.8125 39.015625 
Q 14.890625 38.140625 10.796875 36.28125 
z
" id="DejaVuSans-53"/>
      <path d="M 10.984375 1.515625 
L 10.984375 10.5 
Q 14.703125 8.734375 18.5 7.8125 
Q 22.3125 6.890625 25.984375 6.890625 
Q 35.75 6.890625 40.890625 13.453125 
Q 46.046875 20.015625 46.78125 33.40625 
Q 43.953125 29.203125 39.59375 26.953125 
Q 35.25 24.703125 29.984375 24.703125 
Q 19.046875 24.703125 12.671875 31.3125 
Q 6.296875 37.9375 6.296875 49.421875 
Q 6.296875 60.640625 12.9375 67.421875 
Q 19.578125 74.21875 30.609375 74.21875 
Q 43.265625 74.21875 49.921875 64.515625 
Q 56.59375 54.828125 56.59375 36.375 
Q 56.59375 19.140625 48.40625 8.859375 
Q 40.234375 -1.421875 26.421875 -1.421875 
Q 22.703125 -1.421875 18.890625 -0.6875 
Q 15.09375 0.046875 10.984375 1.515625 
z
M 30.609375 32.421875 
Q 37.25 32.421875 41.125 36.953125 
Q 45.015625 41.5 45.015625 49.421875 
Q 45.015625 57.28125 41.125 61.84375 
Q 37.25 66.40625 30.609375 66.40625 
Q 23.96875 66.40625 20.09375 61.84375 
Q 16.21875 57.28125 16.21875 49.421875 
Q 16.21875 41.5 20.09375 36.953125 
Q 23.96875 32.421875 30.609375 32.421875 
z
" id="DejaVuSans-57"/>
      <path d="M 72.703125 32.078125 
Q 68.453125 32.078125 66.03125 28.46875 
Q 63.625 24.859375 63.625 18.40625 
Q 63.625 12.0625 66.03125 8.421875 
Q 68.453125 4.78125 72.703125 4.78125 
Q 76.859375 4.78125 79.265625 8.421875 
Q 81.6875 12.0625 81.6875 18.40625 
Q 81.6875 24.8125 79.265625 28.4375 
Q 76.859375 32.078125 72.703125 32.078125 
z
M 72.703125 38.28125 
Q 80.421875 38.28125 84.953125 32.90625 
Q 89.5 27.546875 89.5 18.40625 
Q 89.5 9.28125 84.9375 3.921875 
Q 80.375 -1.421875 72.703125 -1.421875 
Q 64.890625 -1.421875 60.34375 3.921875 
Q 55.8125 9.28125 55.8125 18.40625 
Q 55.8125 27.59375 60.375 32.9375 
Q 64.9375 38.28125 72.703125 38.28125 
z
M 22.3125 68.015625 
Q 18.109375 68.015625 15.6875 64.375 
Q 13.28125 60.75 13.28125 54.390625 
Q 13.28125 47.953125 15.671875 44.328125 
Q 18.0625 40.71875 22.3125 40.71875 
Q 26.5625 40.71875 28.96875 44.328125 
Q 31.390625 47.953125 31.390625 54.390625 
Q 31.390625 60.6875 28.953125 64.34375 
Q 26.515625 68.015625 22.3125 68.015625 
z
M 66.40625 74.21875 
L 74.21875 74.21875 
L 28.609375 -1.421875 
L 20.796875 -1.421875 
z
M 22.3125 74.21875 
Q 30.03125 74.21875 34.609375 68.875 
Q 39.203125 63.53125 39.203125 54.390625 
Q 39.203125 45.171875 34.640625 39.84375 
Q 30.078125 34.515625 22.3125 34.515625 
Q 14.546875 34.515625 10.03125 39.859375 
Q 5.515625 45.21875 5.515625 54.390625 
Q 5.515625 63.484375 10.046875 68.84375 
Q 14.59375 74.21875 22.3125 74.21875 
z
" id="DejaVuSans-37"/>
      <path d="M 8.015625 75.875 
L 15.828125 75.875 
Q 23.140625 64.359375 26.78125 53.3125 
Q 30.421875 42.28125 30.421875 31.390625 
Q 30.421875 20.453125 26.78125 9.375 
Q 23.140625 -1.703125 15.828125 -13.1875 
L 8.015625 -13.1875 
Q 14.5 -2 17.703125 9.0625 
Q 20.90625 20.125 20.90625 31.390625 
Q 20.90625 42.671875 17.703125 53.65625 
Q 14.5 64.65625 8.015625 75.875 
z
" id="DejaVuSans-41"/>
     </defs>
     <g transform="translate(119.770938 274.75625)scale(0.12 -0.12)">
      <use xlink:href="#DejaVuSans-65"/>
      <use x="68.408203" xlink:href="#DejaVuSans-120"/>
      <use x="127.587891" xlink:href="#DejaVuSans-105"/>
      <use x="155.371094" xlink:href="#DejaVuSans-115"/>
      <use x="207.470703" xlink:href="#DejaVuSans-32"/>
      <use x="239.257812" xlink:href="#DejaVuSans-49"/>
      <use x="302.880859" xlink:href="#DejaVuSans-32"/>
      <use x="334.667969" xlink:href="#DejaVuSans-40"/>
      <use x="373.681641" xlink:href="#DejaVuSans-51"/>
      <use x="437.304688" xlink:href="#DejaVuSans-53"/>
      <use x="500.927734" xlink:href="#DejaVuSans-46"/>
      <use x="532.714844" xlink:href="#DejaVuSans-54"/>
      <use x="596.337891" xlink:href="#DejaVuSans-57"/>
      <use x="659.960938" xlink:href="#DejaVuSans-37"/>
      <use x="754.980469" xlink:href="#DejaVuSans-41"/>
     </g>
    </g>
   </g>
   <g id="matplotlib.axis_2">
    <g id="ytick_1">
     <g id="line2d_6">
      <defs>
       <path d="M 0 0 
L -3.5 0 
" id="mb3fca2f9c2" style="stroke:#000000;stroke-width:0.8;"/>
      </defs>
      <g>
       <use style="stroke:#000000;stroke-width:0.8;" x="57.62" xlink:href="#mb3fca2f9c2" y="225.9682"/>
      </g>
     </g>
     <g id="text_7">
      <!-- −0.3 -->
      <g transform="translate(26.337188 229.767419)scale(0.1 -0.1)">
       <use xlink:href="#DejaVuSans-8722"/>
       <use x="83.789062" xlink:href="#DejaVuSans-48"/>
       <use x="147.412109" xlink:href="#DejaVuSans-46"/>
       <use x="179.199219" xlink:href="#DejaVuSans-51"/>
      </g>
     </g>
    </g>
    <g id="ytick_2">
     <g id="line2d_7">
      <g>
       <use style="stroke:#000000;stroke-width:0.8;" x="57.62" xlink:href="#mb3fca2f9c2" y="192.587262"/>
      </g>
     </g>
     <g id="text_8">
      <!-- −0.2 -->
      <g transform="translate(26.337188 196.38648)scale(0.1 -0.1)">
       <use xlink:href="#DejaVuSans-8722"/>
       <use x="83.789062" xlink:href="#DejaVuSans-48"/>
       <use x="147.412109" xlink:href="#DejaVuSans-46"/>
       <use x="179.199219" xlink:href="#DejaVuSans-50"/>
      </g>
     </g>
    </g>
    <g id="ytick_3">
     <g id="line2d_8">
      <g>
       <use style="stroke:#000000;stroke-width:0.8;" x="57.62" xlink:href="#mb3fca2f9c2" y="159.206323"/>
      </g>
     </g>
     <g id="text_9">
      <!-- −0.1 -->
      <g transform="translate(26.337188 163.005542)scale(0.1 -0.1)">
       <use xlink:href="#DejaVuSans-8722"/>
       <use x="83.789062" xlink:href="#DejaVuSans-48"/>
       <use x="147.412109" xlink:href="#DejaVuSans-46"/>
       <use x="179.199219" xlink:href="#DejaVuSans-49"/>
      </g>
     </g>
    </g>
    <g id="ytick_4">
     <g id="line2d_9">
      <g>
       <use style="stroke:#000000;stroke-width:0.8;" x="57.62" xlink:href="#mb3fca2f9c2" y="125.825385"/>
      </g>
     </g>
     <g id="text_10">
      <!-- 0.0 -->
      <g transform="translate(34.716875 129.624603)scale(0.1 -0.1)">
       <use xlink:href="#DejaVuSans-48"/>
       <use x="63.623047" xlink:href="#DejaVuSans-46"/>
       <use x="95.410156" xlink:href="#DejaVuSans-48"/>
      </g>
     </g>
    </g>
    <g id="ytick_5">
     <g id="line2d_10">
      <g>
       <use style="stroke:#000000;stroke-width:0.8;" x="57.62" xlink:href="#mb3fca2f9c2" y="92.444446"/>
      </g>
     </g>
     <g id="text_11">
      <!-- 0.1 -->
      <g transform="translate(34.716875 96.243665)scale(0.1 -0.1)">
       <use xlink:href="#DejaVuSans-48"/>
       <use x="63.623047" xlink:href="#DejaVuSans-46"/>
       <use x="95.410156" xlink:href="#DejaVuSans-49"/>
      </g>
     </g>
    </g>
    <g id="ytick_6">
     <g id="line2d_11">
      <g>
       <use style="stroke:#000000;stroke-width:0.8;" x="57.62" xlink:href="#mb3fca2f9c2" y="59.063508"/>
      </g>
     </g>
     <g id="text_12">
      <!-- 0.2 -->
      <g transform="translate(34.716875 62.862726)scale(0.1 -0.1)">
       <use xlink:href="#DejaVuSans-48"/>
       <use x="63.623047" xlink:href="#DejaVuSans-46"/>
       <use x="95.410156" xlink:href="#DejaVuSans-50"/>
      </g>
     </g>
    </g>
    <g id="ytick_7">
     <g id="line2d_12">
      <g>
       <use style="stroke:#000000;stroke-width:0.8;" x="57.62" xlink:href="#mb3fca2f9c2" y="25.682569"/>
      </g>
     </g>
     <g id="text_13">
      <!-- 0.3 -->
      <g transform="translate(34.716875 29.481788)scale(0.1 -0.1)">
       <use xlink:href="#DejaVuSans-48"/>
       <use x="63.623047" xlink:href="#DejaVuSans-46"/>
       <use x="95.410156" xlink:href="#DejaVuSans-51"/>
      </g>
     </g>
    </g>
    <g id="text_14">
     <!-- Axis 2 (13.23%) -->
     <g transform="translate(19.841562 175.519062)rotate(-90)scale(0.12 -0.12)">
      <use xlink:href="#DejaVuSans-65"/>
      <use x="68.408203" xlink:href="#DejaVuSans-120"/>
      <use x="127.587891" xlink:href="#DejaVuSans-105"/>
      <use x="155.371094" xlink:href="#DejaVuSans-115"/>
      <use x="207.470703" xlink:href="#DejaVuSans-32"/>
      <use x="239.257812" xlink:href="#DejaVuSans-50"/>
      <use x="302.880859" xlink:href="#DejaVuSans-32"/>
      <use x="334.667969" xlink:href="#DejaVuSans-40"/>
      <use x="373.681641" xlink:href="#DejaVuSans-49"/>
      <use x="437.304688" xlink:href="#DejaVuSans-51"/>
      <use x="500.927734" xlink:href="#DejaVuSans-46"/>
      <use x="532.714844" xlink:href="#DejaVuSans-50"/>
      <use x="596.337891" xlink:href="#DejaVuSans-51"/>
      <use x="659.960938" xlink:href="#DejaVuSans-37"/>
      <use x="754.980469" xlink:href="#DejaVuSans-41"/>
     </g>
    </g>
   </g>
   <g id="patch_3">
    <path d="M 57.62 244.96 
L 57.62 10.8 
" style="fill:none;stroke:#000000;stroke-linecap:square;stroke-linejoin:miter;stroke-width:0.8;"/>
   </g>
   <g id="patch_4">
    <path d="M 57.62 244.96 
L 277.2 244.96 
" style="fill:none;stroke:#000000;stroke-linecap:square;stroke-linejoin:miter;stroke-width:0.8;"/>
   </g>
   <g id="legend_1">
    <g id="patch_5">
     <path d="M 119.785 239.96 
L 215.035 239.96 
Q 217.035 239.96 217.035 237.96 
L 217.035 62.8225 
Q 217.035 60.8225 215.035 60.8225 
L 119.785 60.8225 
Q 117.785 60.8225 117.785 62.8225 
L 117.785 237.96 
Q 117.785 239.96 119.785 239.96 
z
" style="fill:#ffffff;opacity:0.8;stroke:#cccccc;stroke-linejoin:miter;"/>
    </g>
    <g id="text_15">
     <!-- treatment-group -->
     <defs>
      <path d="M 18.3125 70.21875 
L 18.3125 54.6875 
L 36.8125 54.6875 
L 36.8125 47.703125 
L 18.3125 47.703125 
L 18.3125 18.015625 
Q 18.3125 11.328125 20.140625 9.421875 
Q 21.96875 7.515625 27.59375 7.515625 
L 36.8125 7.515625 
L 36.8125 0 
L 27.59375 0 
Q 17.1875 0 13.234375 3.875 
Q 9.28125 7.765625 9.28125 18.015625 
L 9.28125 47.703125 
L 2.6875 47.703125 
L 2.6875 54.6875 
L 9.28125 54.6875 
L 9.28125 70.21875 
z
" id="DejaVuSans-116"/>
      <path d="M 41.109375 46.296875 
Q 39.59375 47.171875 37.8125 47.578125 
Q 36.03125 48 33.890625 48 
Q 26.265625 48 22.1875 43.046875 
Q 18.109375 38.09375 18.109375 28.8125 
L 18.109375 0 
L 9.078125 0 
L 9.078125 54.6875 
L 18.109375 54.6875 
L 18.109375 46.1875 
Q 20.953125 51.171875 25.484375 53.578125 
Q 30.03125 56 36.53125 56 
Q 37.453125 56 38.578125 55.875 
Q 39.703125 55.765625 41.0625 55.515625 
z
" id="DejaVuSans-114"/>
      <path d="M 56.203125 29.59375 
L 56.203125 25.203125 
L 14.890625 25.203125 
Q 15.484375 15.921875 20.484375 11.0625 
Q 25.484375 6.203125 34.421875 6.203125 
Q 39.59375 6.203125 44.453125 7.46875 
Q 49.3125 8.734375 54.109375 11.28125 
L 54.109375 2.78125 
Q 49.265625 0.734375 44.1875 -0.34375 
Q 39.109375 -1.421875 33.890625 -1.421875 
Q 20.796875 -1.421875 13.15625 6.1875 
Q 5.515625 13.8125 5.515625 26.8125 
Q 5.515625 40.234375 12.765625 48.109375 
Q 20.015625 56 32.328125 56 
Q 43.359375 56 49.78125 48.890625 
Q 56.203125 41.796875 56.203125 29.59375 
z
M 47.21875 32.234375 
Q 47.125 39.59375 43.09375 43.984375 
Q 39.0625 48.390625 32.421875 48.390625 
Q 24.90625 48.390625 20.390625 44.140625 
Q 15.875 39.890625 15.1875 32.171875 
z
" id="DejaVuSans-101"/>
      <path d="M 34.28125 27.484375 
Q 23.390625 27.484375 19.1875 25 
Q 14.984375 22.515625 14.984375 16.5 
Q 14.984375 11.71875 18.140625 8.90625 
Q 21.296875 6.109375 26.703125 6.109375 
Q 34.1875 6.109375 38.703125 11.40625 
Q 43.21875 16.703125 43.21875 25.484375 
L 43.21875 27.484375 
z
M 52.203125 31.203125 
L 52.203125 0 
L 43.21875 0 
L 43.21875 8.296875 
Q 40.140625 3.328125 35.546875 0.953125 
Q 30.953125 -1.421875 24.3125 -1.421875 
Q 15.921875 -1.421875 10.953125 3.296875 
Q 6 8.015625 6 15.921875 
Q 6 25.140625 12.171875 29.828125 
Q 18.359375 34.515625 30.609375 34.515625 
L 43.21875 34.515625 
L 43.21875 35.40625 
Q 43.21875 41.609375 39.140625 45 
Q 35.0625 48.390625 27.6875 48.390625 
Q 23 48.390625 18.546875 47.265625 
Q 14.109375 46.140625 10.015625 43.890625 
L 10.015625 52.203125 
Q 14.9375 54.109375 19.578125 55.046875 
Q 24.21875 56 28.609375 56 
Q 40.484375 56 46.34375 49.84375 
Q 52.203125 43.703125 52.203125 31.203125 
z
" id="DejaVuSans-97"/>
      <path d="M 52 44.1875 
Q 55.375 50.25 60.0625 53.125 
Q 64.75 56 71.09375 56 
Q 79.640625 56 84.28125 50.015625 
Q 88.921875 44.046875 88.921875 33.015625 
L 88.921875 0 
L 79.890625 0 
L 79.890625 32.71875 
Q 79.890625 40.578125 77.09375 44.375 
Q 74.3125 48.1875 68.609375 48.1875 
Q 61.625 48.1875 57.5625 43.546875 
Q 53.515625 38.921875 53.515625 30.90625 
L 53.515625 0 
L 44.484375 0 
L 44.484375 32.71875 
Q 44.484375 40.625 41.703125 44.40625 
Q 38.921875 48.1875 33.109375 48.1875 
Q 26.21875 48.1875 22.15625 43.53125 
Q 18.109375 38.875 18.109375 30.90625 
L 18.109375 0 
L 9.078125 0 
L 9.078125 54.6875 
L 18.109375 54.6875 
L 18.109375 46.1875 
Q 21.1875 51.21875 25.484375 53.609375 
Q 29.78125 56 35.6875 56 
Q 41.65625 56 45.828125 52.96875 
Q 50 49.953125 52 44.1875 
z
" id="DejaVuSans-109"/>
      <path d="M 54.890625 33.015625 
L 54.890625 0 
L 45.90625 0 
L 45.90625 32.71875 
Q 45.90625 40.484375 42.875 44.328125 
Q 39.84375 48.1875 33.796875 48.1875 
Q 26.515625 48.1875 22.3125 43.546875 
Q 18.109375 38.921875 18.109375 30.90625 
L 18.109375 0 
L 9.078125 0 
L 9.078125 54.6875 
L 18.109375 54.6875 
L 18.109375 46.1875 
Q 21.34375 51.125 25.703125 53.5625 
Q 30.078125 56 35.796875 56 
Q 45.21875 56 50.046875 50.171875 
Q 54.890625 44.34375 54.890625 33.015625 
z
" id="DejaVuSans-110"/>
      <path d="M 4.890625 31.390625 
L 31.203125 31.390625 
L 31.203125 23.390625 
L 4.890625 23.390625 
z
" id="DejaVuSans-45"/>
      <path d="M 45.40625 27.984375 
Q 45.40625 37.75 41.375 43.109375 
Q 37.359375 48.484375 30.078125 48.484375 
Q 22.859375 48.484375 18.828125 43.109375 
Q 14.796875 37.75 14.796875 27.984375 
Q 14.796875 18.265625 18.828125 12.890625 
Q 22.859375 7.515625 30.078125 7.515625 
Q 37.359375 7.515625 41.375 12.890625 
Q 45.40625 18.265625 45.40625 27.984375 
z
M 54.390625 6.78125 
Q 54.390625 -7.171875 48.1875 -13.984375 
Q 42 -20.796875 29.203125 -20.796875 
Q 24.46875 -20.796875 20.265625 -20.09375 
Q 16.0625 -19.390625 12.109375 -17.921875 
L 12.109375 -9.1875 
Q 16.0625 -11.328125 19.921875 -12.34375 
Q 23.78125 -13.375 27.78125 -13.375 
Q 36.625 -13.375 41.015625 -8.765625 
Q 45.40625 -4.15625 45.40625 5.171875 
L 45.40625 9.625 
Q 42.625 4.78125 38.28125 2.390625 
Q 33.9375 0 27.875 0 
Q 17.828125 0 11.671875 7.65625 
Q 5.515625 15.328125 5.515625 27.984375 
Q 5.515625 40.671875 11.671875 48.328125 
Q 17.828125 56 27.875 56 
Q 33.9375 56 38.28125 53.609375 
Q 42.625 51.21875 45.40625 46.390625 
L 45.40625 54.6875 
L 54.390625 54.6875 
z
" id="DejaVuSans-103"/>
      <path d="M 30.609375 48.390625 
Q 23.390625 48.390625 19.1875 42.75 
Q 14.984375 37.109375 14.984375 27.296875 
Q 14.984375 17.484375 19.15625 11.84375 
Q 23.34375 6.203125 30.609375 6.203125 
Q 37.796875 6.203125 41.984375 11.859375 
Q 46.1875 17.53125 46.1875 27.296875 
Q 46.1875 37.015625 41.984375 42.703125 
Q 37.796875 48.390625 30.609375 48.390625 
z
M 30.609375 56 
Q 42.328125 56 49.015625 48.375 
Q 55.71875 40.765625 55.71875 27.296875 
Q 55.71875 13.875 49.015625 6.21875 
Q 42.328125 -1.421875 30.609375 -1.421875 
Q 18.84375 -1.421875 12.171875 6.21875 
Q 5.515625 13.875 5.515625 27.296875 
Q 5.515625 40.765625 12.171875 48.375 
Q 18.84375 56 30.609375 56 
z
" id="DejaVuSans-111"/>
      <path d="M 8.5 21.578125 
L 8.5 54.6875 
L 17.484375 54.6875 
L 17.484375 21.921875 
Q 17.484375 14.15625 20.5 10.265625 
Q 23.53125 6.390625 29.59375 6.390625 
Q 36.859375 6.390625 41.078125 11.03125 
Q 45.3125 15.671875 45.3125 23.6875 
L 45.3125 54.6875 
L 54.296875 54.6875 
L 54.296875 0 
L 45.3125 0 
L 45.3125 8.40625 
Q 42.046875 3.421875 37.71875 1 
Q 33.40625 -1.421875 27.6875 -1.421875 
Q 18.265625 -1.421875 13.375 4.4375 
Q 8.5 10.296875 8.5 21.578125 
z
M 31.109375 56 
z
" id="DejaVuSans-117"/>
      <path d="M 18.109375 8.203125 
L 18.109375 -20.796875 
L 9.078125 -20.796875 
L 9.078125 54.6875 
L 18.109375 54.6875 
L 18.109375 46.390625 
Q 20.953125 51.265625 25.265625 53.625 
Q 29.59375 56 35.59375 56 
Q 45.5625 56 51.78125 48.09375 
Q 58.015625 40.1875 58.015625 27.296875 
Q 58.015625 14.40625 51.78125 6.484375 
Q 45.5625 -1.421875 35.59375 -1.421875 
Q 29.59375 -1.421875 25.265625 0.953125 
Q 20.953125 3.328125 18.109375 8.203125 
z
M 48.6875 27.296875 
Q 48.6875 37.203125 44.609375 42.84375 
Q 40.53125 48.484375 33.40625 48.484375 
Q 26.265625 48.484375 22.1875 42.84375 
Q 18.109375 37.203125 18.109375 27.296875 
Q 18.109375 17.390625 22.1875 11.75 
Q 26.265625 6.109375 33.40625 6.109375 
Q 40.53125 6.109375 44.609375 11.75 
Q 48.6875 17.390625 48.6875 27.296875 
z
" id="DejaVuSans-112"/>
     </defs>
     <g transform="translate(129.785 72.420938)scale(0.1 -0.1)">
      <use xlink:href="#DejaVuSans-116"/>
      <use x="39.208984" xlink:href="#DejaVuSans-114"/>
      <use x="80.291016" xlink:href="#DejaVuSans-101"/>
      <use x="141.814453" xlink:href="#DejaVuSans-97"/>
      <use x="203.09375" xlink:href="#DejaVuSans-116"/>
      <use x="242.302734" xlink:href="#DejaVuSans-109"/>
      <use x="339.714844" xlink:href="#DejaVuSans-101"/>
      <use x="401.238281" xlink:href="#DejaVuSans-110"/>
      <use x="464.617188" xlink:href="#DejaVuSans-116"/>
      <use x="503.826172" xlink:href="#DejaVuSans-45"/>
      <use x="539.910156" xlink:href="#DejaVuSans-103"/>
      <use x="603.386719" xlink:href="#DejaVuSans-114"/>
      <use x="644.46875" xlink:href="#DejaVuSans-111"/>
      <use x="705.650391" xlink:href="#DejaVuSans-117"/>
      <use x="769.029297" xlink:href="#DejaVuSans-112"/>
     </g>
    </g>
    <g id="PathCollection_12">
     <defs>
      <path d="M 0 3 
C 0.795609 3 1.55874 2.683901 2.12132 2.12132 
C 2.683901 1.55874 3 0.795609 3 0 
C 3 -0.795609 2.683901 -1.55874 2.12132 -2.12132 
C 1.55874 -2.683901 0.795609 -3 0 -3 
C -0.795609 -3 -1.55874 -2.683901 -2.12132 -2.12132 
C -2.683901 -1.55874 -3 -0.795609 -3 0 
C -3 0.795609 -2.683901 1.55874 -2.12132 2.12132 
C -1.55874 2.683901 -0.795609 3 0 3 
z
" id="mb9d24b0d7f" style="stroke:#ea706a;"/>
     </defs>
     <g>
      <use style="fill:#ea706a;stroke:#ea706a;" x="131.785" xlink:href="#mb9d24b0d7f" y="84.474063"/>
     </g>
    </g>
    <g id="text_16">
     <!-- WT -->
     <defs>
      <path d="M 3.328125 72.90625 
L 13.28125 72.90625 
L 28.609375 11.28125 
L 43.890625 72.90625 
L 54.984375 72.90625 
L 70.3125 11.28125 
L 85.59375 72.90625 
L 95.609375 72.90625 
L 77.296875 0 
L 64.890625 0 
L 49.515625 63.28125 
L 33.984375 0 
L 21.578125 0 
z
" id="DejaVuSans-87"/>
      <path d="M -0.296875 72.90625 
L 61.375 72.90625 
L 61.375 64.59375 
L 35.5 64.59375 
L 35.5 0 
L 25.59375 0 
L 25.59375 64.59375 
L -0.296875 64.59375 
z
" id="DejaVuSans-84"/>
     </defs>
     <g transform="translate(149.785 87.099063)scale(0.1 -0.1)">
      <use xlink:href="#DejaVuSans-87"/>
      <use x="98.876953" xlink:href="#DejaVuSans-84"/>
     </g>
    </g>
    <g id="PathCollection_13">
     <defs>
      <path d="M 0 3 
C 0.795609 3 1.55874 2.683901 2.12132 2.12132 
C 2.683901 1.55874 3 0.795609 3 0 
C 3 -0.795609 2.683901 -1.55874 2.12132 -2.12132 
C 1.55874 -2.683901 0.795609 -3 0 -3 
C -0.795609 -3 -1.55874 -2.683901 -2.12132 -2.12132 
C -2.683901 -1.55874 -3 -0.795609 -3 0 
C -3 0.795609 -2.683901 1.55874 -2.12132 2.12132 
C -1.55874 2.683901 -0.795609 3 0 3 
z
" id="mc73f2a5506" style="stroke:#3482f4;"/>
     </defs>
     <g>
      <use style="fill:#3482f4;stroke:#3482f4;" x="131.785" xlink:href="#mc73f2a5506" y="99.152188"/>
     </g>
    </g>
    <g id="text_17">
     <!-- spTEM1 -->
     <defs>
      <path d="M 9.8125 72.90625 
L 55.90625 72.90625 
L 55.90625 64.59375 
L 19.671875 64.59375 
L 19.671875 43.015625 
L 54.390625 43.015625 
L 54.390625 34.71875 
L 19.671875 34.71875 
L 19.671875 8.296875 
L 56.78125 8.296875 
L 56.78125 0 
L 9.8125 0 
z
" id="DejaVuSans-69"/>
      <path d="M 9.8125 72.90625 
L 24.515625 72.90625 
L 43.109375 23.296875 
L 61.8125 72.90625 
L 76.515625 72.90625 
L 76.515625 0 
L 66.890625 0 
L 66.890625 64.015625 
L 48.09375 14.015625 
L 38.1875 14.015625 
L 19.390625 64.015625 
L 19.390625 0 
L 9.8125 0 
z
" id="DejaVuSans-77"/>
     </defs>
     <g transform="translate(149.785 101.777188)scale(0.1 -0.1)">
      <use xlink:href="#DejaVuSans-115"/>
      <use x="52.099609" xlink:href="#DejaVuSans-112"/>
      <use x="115.576172" xlink:href="#DejaVuSans-84"/>
      <use x="176.660156" xlink:href="#DejaVuSans-69"/>
      <use x="239.84375" xlink:href="#DejaVuSans-77"/>
      <use x="326.123047" xlink:href="#DejaVuSans-49"/>
     </g>
    </g>
    <g id="text_18">
     <!-- time-point-day -->
     <defs>
      <path d="M 45.40625 46.390625 
L 45.40625 75.984375 
L 54.390625 75.984375 
L 54.390625 0 
L 45.40625 0 
L 45.40625 8.203125 
Q 42.578125 3.328125 38.25 0.953125 
Q 33.9375 -1.421875 27.875 -1.421875 
Q 17.96875 -1.421875 11.734375 6.484375 
Q 5.515625 14.40625 5.515625 27.296875 
Q 5.515625 40.1875 11.734375 48.09375 
Q 17.96875 56 27.875 56 
Q 33.9375 56 38.25 53.625 
Q 42.578125 51.265625 45.40625 46.390625 
z
M 14.796875 27.296875 
Q 14.796875 17.390625 18.875 11.75 
Q 22.953125 6.109375 30.078125 6.109375 
Q 37.203125 6.109375 41.296875 11.75 
Q 45.40625 17.390625 45.40625 27.296875 
Q 45.40625 37.203125 41.296875 42.84375 
Q 37.203125 48.484375 30.078125 48.484375 
Q 22.953125 48.484375 18.875 42.84375 
Q 14.796875 37.203125 14.796875 27.296875 
z
" id="DejaVuSans-100"/>
      <path d="M 32.171875 -5.078125 
Q 28.375 -14.84375 24.75 -17.8125 
Q 21.140625 -20.796875 15.09375 -20.796875 
L 7.90625 -20.796875 
L 7.90625 -13.28125 
L 13.1875 -13.28125 
Q 16.890625 -13.28125 18.9375 -11.515625 
Q 21 -9.765625 23.484375 -3.21875 
L 25.09375 0.875 
L 2.984375 54.6875 
L 12.5 54.6875 
L 29.59375 11.921875 
L 46.6875 54.6875 
L 56.203125 54.6875 
z
" id="DejaVuSans-121"/>
     </defs>
     <g transform="translate(129.785 116.455313)scale(0.1 -0.1)">
      <use xlink:href="#DejaVuSans-116"/>
      <use x="39.208984" xlink:href="#DejaVuSans-105"/>
      <use x="66.992188" xlink:href="#DejaVuSans-109"/>
      <use x="164.404297" xlink:href="#DejaVuSans-101"/>
      <use x="225.927734" xlink:href="#DejaVuSans-45"/>
      <use x="262.011719" xlink:href="#DejaVuSans-112"/>
      <use x="325.488281" xlink:href="#DejaVuSans-111"/>
      <use x="386.669922" xlink:href="#DejaVuSans-105"/>
      <use x="414.453125" xlink:href="#DejaVuSans-110"/>
      <use x="477.832031" xlink:href="#DejaVuSans-116"/>
      <use x="517.041016" xlink:href="#DejaVuSans-45"/>
      <use x="553.125" xlink:href="#DejaVuSans-100"/>
      <use x="616.601562" xlink:href="#DejaVuSans-97"/>
      <use x="677.880859" xlink:href="#DejaVuSans-121"/>
     </g>
    </g>
    <g id="PathCollection_14">
     <defs>
      <path d="M 0 3 
C 0.795609 3 1.55874 2.683901 2.12132 2.12132 
C 2.683901 1.55874 3 0.795609 3 0 
C 3 -0.795609 2.683901 -1.55874 2.12132 -2.12132 
C 1.55874 -2.683901 0.795609 -3 0 -3 
C -0.795609 -3 -1.55874 -2.683901 -2.12132 -2.12132 
C -2.683901 -1.55874 -3 -0.795609 -3 0 
C -3 0.795609 -2.683901 1.55874 -2.12132 2.12132 
C -1.55874 2.683901 -0.795609 3 0 3 
z
" id="me5a3bbe728" style="stroke:#333333;"/>
     </defs>
     <g>
      <use style="fill:#333333;stroke:#333333;" x="131.785" xlink:href="#me5a3bbe728" y="128.508438"/>
     </g>
    </g>
    <g id="text_19">
     <!-- 0 -->
     <g transform="translate(149.785 131.133438)scale(0.1 -0.1)">
      <use xlink:href="#DejaVuSans-48"/>
     </g>
    </g>
    <g id="PathCollection_15">
     <defs>
      <path d="M -3 -0 
L 3 3 
L 3 -3 
z
" id="m23f02b1610" style="stroke:#333333;"/>
     </defs>
     <g>
      <use style="fill:#333333;stroke:#333333;" x="131.785" xlink:href="#m23f02b1610" y="143.186563"/>
     </g>
    </g>
    <g id="text_20">
     <!-- 1 -->
     <g transform="translate(149.785 145.811563)scale(0.1 -0.1)">
      <use xlink:href="#DejaVuSans-49"/>
     </g>
    </g>
    <g id="PathCollection_16">
     <defs>
      <path d="M 3 0 
L -3 -3 
L -3 3 
z
" id="m281c6cbba0" style="stroke:#333333;"/>
     </defs>
     <g>
      <use style="fill:#333333;stroke:#333333;" x="131.785" xlink:href="#m281c6cbba0" y="157.864688"/>
     </g>
    </g>
    <g id="text_21">
     <!-- 2 -->
     <g transform="translate(149.785 160.489688)scale(0.1 -0.1)">
      <use xlink:href="#DejaVuSans-50"/>
     </g>
    </g>
    <g id="PathCollection_17">
     <defs>
      <path d="M 0 -3 
L -3 3 
L 3 3 
z
" id="m9c449cfeb8" style="stroke:#333333;"/>
     </defs>
     <g>
      <use style="fill:#333333;stroke:#333333;" x="131.785" xlink:href="#m9c449cfeb8" y="172.542813"/>
     </g>
    </g>
    <g id="text_22">
     <!-- 3 -->
     <g transform="translate(149.785 175.167813)scale(0.1 -0.1)">
      <use xlink:href="#DejaVuSans-51"/>
     </g>
    </g>
    <g id="PathCollection_18">
     <defs>
      <path d="M -0 4.242641 
L 2.545584 0 
L 0 -4.242641 
L -2.545584 -0 
z
" id="m6db0f7b3d5" style="stroke:#333333;"/>
     </defs>
     <g>
      <use style="fill:#333333;stroke:#333333;" x="131.785" xlink:href="#m6db0f7b3d5" y="187.220938"/>
     </g>
    </g>
    <g id="text_23">
     <!-- 5 -->
     <g transform="translate(149.785 189.845938)scale(0.1 -0.1)">
      <use xlink:href="#DejaVuSans-53"/>
     </g>
    </g>
    <g id="PathCollection_19">
     <defs>
      <path d="M -3 3 
L 3 3 
L 3 -3 
L -3 -3 
z
" id="m0cc6f2f686" style="stroke:#333333;"/>
     </defs>
     <g>
      <use style="fill:#333333;stroke:#333333;" x="131.785" xlink:href="#m0cc6f2f686" y="201.899063"/>
     </g>
    </g>
    <g id="text_24">
     <!-- 7 -->
     <defs>
      <path d="M 8.203125 72.90625 
L 55.078125 72.90625 
L 55.078125 68.703125 
L 28.609375 0 
L 18.3125 0 
L 43.21875 64.59375 
L 8.203125 64.59375 
z
" id="DejaVuSans-55"/>
     </defs>
     <g transform="translate(149.785 204.524063)scale(0.1 -0.1)">
      <use xlink:href="#DejaVuSans-55"/>
     </g>
    </g>
    <g id="PathCollection_20">
     <defs>
      <path d="M 0 -3 
L -2.85317 -0.927051 
L -1.763356 2.427051 
L 1.763356 2.427051 
L 2.85317 -0.927051 
z
" id="m9ccc0f9e67" style="stroke:#333333;"/>
     </defs>
     <g>
      <use style="fill:#333333;stroke:#333333;" x="131.785" xlink:href="#m9ccc0f9e67" y="216.577188"/>
     </g>
    </g>
    <g id="text_25">
     <!-- 9 -->
     <g transform="translate(149.785 219.202188)scale(0.1 -0.1)">
      <use xlink:href="#DejaVuSans-57"/>
     </g>
    </g>
    <g id="PathCollection_21">
     <defs>
      <path d="M 0 -3 
L -0.673542 -0.927051 
L -2.85317 -0.927051 
L -1.089814 0.354102 
L -1.763356 2.427051 
L -0 1.145898 
L 1.763356 2.427051 
L 1.089814 0.354102 
L 2.85317 -0.927051 
L 0.673542 -0.927051 
z
" id="mc99a639836" style="stroke:#333333;"/>
     </defs>
     <g>
      <use style="fill:#333333;stroke:#333333;" x="131.785" xlink:href="#mc99a639836" y="231.255313"/>
     </g>
    </g>
    <g id="text_26">
     <!-- 12 -->
     <g transform="translate(149.785 233.880313)scale(0.1 -0.1)">
      <use xlink:href="#DejaVuSans-49"/>
      <use x="63.623047" xlink:href="#DejaVuSans-50"/>
     </g>
    </g>
   </g>
  </g>
 </g>
 <defs>
  <clipPath id="pda0f26d360">
   <rect height="234.16" width="219.58" x="57.62" y="10.8"/>
  </clipPath>
 </defs>
</svg>
